<?xml version="1.0" standalone="no"?>
<!DOCTYPE svg PUBLIC "-//W3C//DTD SVG 1.1//EN" "http://www.w3.org/Graphics/SVG/1.1/DTD/svg11.dtd" >
<svg xmlns="http://www.w3.org/2000/svg">
<metadata></metadata>
<defs>
<font id="gooddogregular" horiz-adv-x="735" >
<font-face units-per-em="2048" ascent="1638" descent="-410" />
<missing-glyph horiz-adv-x="378" />
<glyph horiz-adv-x="0" />
<glyph horiz-adv-x="682" />
<glyph unicode=" "  horiz-adv-x="378" />
<glyph unicode="&#x09;" horiz-adv-x="378" />
<glyph unicode="&#xa0;" horiz-adv-x="378" />
<glyph unicode="!" horiz-adv-x="473" d="M35 164q0 62 60.5 91t115.5 -9q15 -10 41 -10q-3 -25 2.5 -61t10 -61t-5 -52t-38.5 -44q-32 -19 -60.5 -19t-48 14.5t-35.5 40t-25.5 52.5t-16.5 58zM127.5 405.5q-1.5 22.5 1 42t8.5 48.5t8 45q30 222 62 385t88 327q9 26 31.5 41t47.5 16t48 -6t37 -23.5t12 -37.5 q-14 -157 -88.5 -456t-93.5 -431q0 -58 -107 -16q-26 10 -39.5 26.5t-15 39z" />
<glyph unicode="&#x22;" horiz-adv-x="600" d="M55 1142.5q0 43.5 4 84.5q5 44 48.5 66t68.5 -9q41 -54 53 -126t4 -131.5t-20 -144t-12 -137.5q0 -14 -25.5 -21.5t-54.5 0t-37 30.5q-25 66 -25 207q0 31 -2 84.5t-2 97zM431 863q-1 15 0 48t1 41q0 174 27 291q6 31 52 54q48 26 70 6q7 -7 9 -19q9 -58 8.5 -127.5 t-5 -119t-14.5 -133.5t-14 -126q-7 -21 -51 -24.5t-65 24.5q-9 20 -13 45t-5 40z" />
<glyph unicode="#" horiz-adv-x="1005" d="M26 379.5q-2 20.5 8.5 34.5t26.5 25.5t39 20t44.5 15.5t44.5 15t36 16q-9 23 -6.5 52.5t10 56t0.5 45t-34 18.5q-8 0 -17.5 -14.5t-20.5 -25t-24 -1.5q-2 1 -10.5 3.5t-11.5 3.5l-10.5 3.5t-11.5 4.5t-10.5 5t-10.5 6t-9 7t-9 8.5t-7 9.5q-18 56 10 100q21 22 93.5 55.5 t89.5 65.5q17 22 19.5 62t-2.5 76t1 75q8 47 45.5 65t79 7t67.5 -41q20 -24 18.5 -60t-13 -66t-13 -64t18.5 -54q39 -28 104.5 -13.5t97.5 54.5q34 34 46.5 95t23.5 123t41 96q11 17 28.5 30t40 16.5t42.5 -16.5q11 -7 33.5 -14.5t35.5 -15t13 -21.5q3 -29 -14 -69 t-35 -69.5t-23.5 -66t20.5 -57.5q6 -6 43 -30t47 -42q8 -15 1.5 -38.5t-19.5 -30.5q-19 -9 -65 -19t-68 -22q-24 -13 -30.5 -39.5t-2 -53.5t2 -58.5t-18.5 -51.5q12 -6 20 -21.5t10 -17.5q25 -4 49.5 -13.5t47 -25.5t27 -36.5t-12.5 -47.5q-16 -22 -47.5 -26t-58.5 -5.5 t-35 -17.5q-21 -39 -17.5 -99.5t13 -105.5t-5.5 -98q-31 -60 -132 41q-18 17 -28 47.5t-12.5 56.5t-5.5 71t-5 67q0 11 -8 16t-19.5 4.5t-23 -3.5t-18.5 -7q-26 -12 -52.5 -7.5t-51 1t-29.5 -24.5q-13 -56 7 -167.5t3 -156.5q-5 -15 -19.5 -19.5t-32.5 1t-36.5 15.5t-33 25 t-20.5 30q-15 39 -29 122t-30 119q-10 20 -34 20.5t-49 -10t-51 -10t-38 20.5q-15 25 -17 45.5zM397 586.5q7 -37.5 39 -60.5q10 -10 46.5 3t56.5 8q37 -9 60 11t29 60.5t6 76.5t-5 73q-40 -11 -77.5 -6t-74 -1t-51.5 -32q-17 -32 -26.5 -63.5t-2.5 -69z" />
<glyph unicode="$" horiz-adv-x="624" d="M42.5 351.5q25.5 37.5 68.5 37.5q23 3 50.5 -18t47 -36.5t29.5 -2.5q23 30 32 72.5t7 83t-2 87.5t4 87q-94 37 -160 97.5t-66 141.5q0 13 7 28t18 21q88 111 272 152q44 15 50.5 23.5t-1.5 26t7 60.5q12 24 39.5 30t33.5 -13q17 -31 16 -47t-8.5 -27.5t0.5 -52.5 q4 -12 25 -25t44 -22t43.5 -23t23 -28t-16.5 -37q-13 -14 -42 -11.5t-53.5 8.5t-47.5 -6q-31 -19 -44.5 -58.5t-9 -78t20.5 -63.5q16 -24 57 -51.5t73.5 -57t37.5 -67.5q21 -128 -23 -234q-12 -27 -38.5 -47.5t-53 -31t-56 -29.5t-44.5 -43q-18 -26 -21.5 -46.5t1 -33.5 t8 -26.5t-4.5 -33.5t-32 -47q-12 -18 -42 -6.5t-30 31.5q-8 53 -2 70.5t5 37t-19 54.5q-13 25 -84.5 41t-100.5 38q-44 38 -18.5 75.5zM207 846q4 -18 23 -32.5t32 -14.5q29 -4 39 24t4.5 62.5t-18.5 56.5q-7 6 -11.5 3t-14 -13.5t-15.5 -13.5q-53 -26 -39 -72zM372 373.5 q0 -10.5 11 -17.5q27 -7 53.5 3t26.5 38q13 45 -4 106q-15 56 -44 53q-9 0 -18 -7q-14 -16 -14 -127q0 -9 -5.5 -23.5t-5.5 -25z" />
<glyph unicode="%" horiz-adv-x="1269" d="M20 969.5q12 68.5 68 107.5q42 30 77 49.5t77 35t83.5 14.5t80.5 -19q59 -28 96 -91t38 -132.5t-36 -132.5q-24 -37 -67.5 -53.5t-90.5 -14t-100 18.5q-7 2 -31 9t-32 9.5t-27 9t-28.5 11.5t-23.5 13t-24.5 16.5t-20.5 19.5q-51 61 -39 129.5zM217 930q-6 -33 19 -55.5 t58.5 -22t61.5 17.5q18 14 22.5 27.5t0.5 34.5t-4 26q0 4 -4.5 9.5t-13 12t-11.5 9.5q-43 9 -82.5 -5t-46.5 -54zM279 117q0 31 7.5 60t25 72.5t22.5 59.5q36 108 102 222t126 193t154 199.5t146 194.5q18 25 33 36t36.5 10.5t49.5 -17.5q16 -16 18.5 -50t-6.5 -50 q-43 -91 -111 -196.5t-135 -198.5t-134 -191t-123.5 -209.5t-88.5 -220.5q-44 -7 -69.5 -5t-36.5 21t-16 70zM662.5 148.5q-24.5 72.5 3.5 142.5q11 29 39.5 69t35.5 54q11 11 49 32t54 41q37 39 139 39q97 -16 169.5 -94t66.5 -178q-29 -19 -70 -53t-72.5 -61.5t-73.5 -55 t-79.5 -42.5t-83 -15t-90.5 20q-63 29 -87.5 101.5zM851.5 181.5q11.5 -24.5 39.5 -11.5q9 6 23 14.5t26 15t26.5 15.5t25 17t21 18t15 18.5t7 19.5t-4.5 21q-22 44 -57 38.5t-70.5 -39t-50.5 -72.5q-12 -30 -0.5 -54.5z" />
<glyph unicode="&#x26;" horiz-adv-x="567" d="M38.5 510.5q13.5 28.5 35 46t40.5 44t17 54.5q-2 8 -10.5 40.5t-11.5 48.5t-6 42.5t0 48.5t12 42q30 51 92 100q24 12 65 12.5t71 5t40 27.5q22 51 19.5 110.5t25.5 110.5q15 23 50 27t63.5 -14t25.5 -50q-6 -61 -18.5 -119.5t-18.5 -106t-2 -118.5q6 -90 -61 -123 q-23 -20 -56.5 -16.5t-50.5 31.5q-9 9 -7 40.5t-1 51.5q-12 27 -42 23.5t-42 -23.5q-39 -46 -9.5 -118.5t93.5 -96.5q16 -5 20.5 -31.5t-3.5 -36.5q-5 -9 -11 -16.5t-14.5 -13t-14.5 -9.5t-18 -7t-17.5 -5t-21 -4t-20 -2.5t-23 -2t-22.5 -1.5q-14 -14 -14 -31 q6 -18 23 -32.5t32.5 -19.5t19.5 -1q71 35 142 35q72 1 69 -47l-4 -19q-14 -47 -43 -104t-44.5 -106.5t-12.5 -113.5q2 -30 -36 -55.5t-71 -13.5q-16 0 -31 16.5t-22 36.5q0 50 22.5 108.5t22.5 108.5q-3 19 -27 25.5t-55.5 11t-46.5 16.5q-66 54 -92 132q-14 33 -0.5 61.5z " />
<glyph unicode="'" horiz-adv-x="247" d="M61.5 1016.5q2.5 48.5 6.5 75.5t13.5 82t12.5 75q5 36 42 52.5t72.5 4t35.5 -48.5q7 -27 4 -69.5t-7.5 -72t-12 -74t-9.5 -74.5q-1 -19 4 -54.5t6 -54t-10 -43.5q-14 -20 -46.5 -27t-45.5 11q-26 30 -41.5 68t-21 69.5t-3 80z" />
<glyph unicode="(" horiz-adv-x="677" d="M33 764q0 13 4.5 30t12 40t11.5 38q67 135 189.5 236.5t286.5 187.5q21 16 49 14t49 -24q19 -19 30 -36.5t13.5 -35t-12.5 -26.5q-45 -39 -171.5 -127t-185.5 -150q-41 -42 -62.5 -91t-24.5 -106.5t1.5 -104t16.5 -113.5q1 -6 9 -49t11 -54.5t11.5 -48t16.5 -53t20 -44 t27 -48t34 -39.5q11 -5 26.5 -3t29.5 7t26.5 2.5t15.5 -16.5q14 -30 4 -61.5t-33 -47.5q-6 -3 -21.5 -10t-24 -10.5t-25 -10t-24.5 -7.5t-23 -3.5t-21 2.5q-8 2 -24 5.5t-25.5 5.5t-21 7t-17.5 11q-237 359 -178 733z" />
<glyph unicode=")" horiz-adv-x="638" d="M24 55q2 26 11 45q33 36 85.5 79t96 78t87 76.5t73.5 93t41 108.5q30 156 -47 316.5t-215 287.5q-43 44 -8.5 100t98.5 72q40 10 82 -11q96 -104 159.5 -229.5t122.5 -294.5q57 -165 0 -303q-56 -134 -168.5 -243.5t-275.5 -211.5q-60 -36 -131 0q-13 11 -11 37z" />
<glyph unicode="*" horiz-adv-x="851" d="M31 803q25 38 73 56t103.5 33.5t87.5 41.5q-62 90 -205 156q-7 3 -9 9.5t-0.5 20t1.5 15.5q0 35 35 60.5t67 4.5q43 -26 113.5 -78.5t93.5 -68.5q8 -8 9 8q4 34 6 37q7 21 15 65.5t15 72.5t29.5 51.5t58.5 23.5q28 0 52.5 -18.5t13.5 -47.5q-46 -130 -66 -244 q21 -7 59 -3.5t57 7.5t56 12.5t56 12.5q53 18 85.5 -13t-3.5 -75q-23 -27 -59.5 -40t-69.5 -14t-74.5 -7.5t-69.5 -20.5q36 -42 76 -83.5t101 -101t81 -79.5q0 -15 -14 -29q-49 -25 -105 0q-40 17 -74.5 44.5t-81.5 76t-65 64.5q-15 -36 -41.5 -121.5t-53.5 -144t-67 -103.5 q-10 -13 -36 -19t-46 3.5t-14 35.5q9 56 39.5 129t55 141.5t24.5 129.5q-111 -19 -221 -74q-37 -13 -74 0q-49 39 -14 74z" />
<glyph unicode="+" horiz-adv-x="661" d="M25.5 613.5q3.5 29.5 35.5 39.5q114 43 215 54q6 2 9 6t3 7.5t-0.5 11t-0.5 11.5q0 27 -12 64t-22 63t-6.5 57.5t29.5 57.5q37 29 113 29q26 -4 46 -23t20 -35q9 -38 6.5 -70t1 -69t20.5 -59q11 -16 43 -16t61 4t56 -11q13 -10 19 -30t0 -35q-42 -40 -150 -52 q-3 -3 -14 -8t-18 -10.5t-7 -11.5q0 -27 7 -73.5t9.5 -73t-6.5 -72.5q-6 -23 -44 -27t-58 18q-33 22 -46.5 60t-22 80t-25.5 65q-13 17 -40.5 20.5t-55 -2.5t-65.5 -10t-65 0q-39 11 -35.5 40.5z" />
<glyph unicode="," horiz-adv-x="299" d="M59 166q-6 55 17 92.5t60.5 50t78 9t68.5 -22.5q22 -14 17 -84t-22.5 -149.5t-49 -151t-62.5 -88.5q-32 -19 -53 0t-30 66.5t-13 95.5t-6 105t-5 77z" />
<glyph unicode="-" d="M47 543q-7 50 28 87.5t87 37.5q53 0 126.5 -5.5t128.5 -11t126 -5t133 10.5q14 7 31.5 1.5t25.5 -19.5q5 -12 2.5 -24t-3 -20.5t-7.5 -17t-11.5 -14t-14 -11.5t-15.5 -9.5t-17 -8t-17.5 -7t-16.5 -6t-15 -5.5q-259 -74 -534 0q-16 4 -25.5 10.5t-10.5 11.5z" />
<glyph unicode="." horiz-adv-x="325" d="M61 166q-6 55 17 92.5t60 50t77.5 9t67.5 -22.5q28 -21 39.5 -74.5t-3.5 -110.5t-55 -81q-57 -31 -100.5 -13.5t-70.5 59t-32 91.5z" />
<glyph unicode="/" horiz-adv-x="784" d="M2 86q21 104 67 218.5t87.5 192t112 203t104.5 189.5q19 36 44 97t45 105t48 91.5t66 78t86 42.5q60 15 102 -23t6 -102q-39 -70 -117 -202.5t-127 -219t-111.5 -204t-111.5 -230t-86 -222.5q-8 -37 -28.5 -55t-67.5 -39q-50 -23 -90 4.5t-29 75.5z" />
<glyph unicode="0" horiz-adv-x="890" d="M43 473q-11 98 24 194t101 168.5t154.5 123.5t181.5 67q81 13 162.5 -26.5t138.5 -114.5q63 -81 79.5 -176.5t-10.5 -187t-77.5 -175t-120.5 -153.5q-58 -58 -122 -90.5t-134.5 -36.5t-134.5 36q-103 61 -165.5 159t-76.5 212zM281 565q-9 -81 28 -154.5t109 -103.5 q27 -17 55 -10t51.5 26.5t44.5 49.5q149 205 74 329q-54 89 -121 89q-89 0 -160.5 -69.5t-80.5 -156.5z" />
<glyph unicode="1" horiz-adv-x="335" d="M60 262.5q-7 107.5 4 193t24.5 203.5t13.5 199q0 42 46.5 89t99.5 22q38 -17 62 -50t16 -73q-61 -316 -43 -647q3 -17 16 -36t22.5 -30.5t14 -30.5t-9.5 -36q-3 -3 -13 -14t-14 -15t-13 -12t-15 -11.5t-15.5 -8t-19.5 -6t-21 -1.5q-35 0 -65.5 17.5t-47.5 50.5 q-35 89 -42 196.5z" />
<glyph unicode="2" horiz-adv-x="858" d="M41 891q10 30 29.5 47t46 20.5t49.5 2.5t53 -5t43 -4q74 0 116 -2t106.5 -16.5t113.5 -42.5q7 -4 22 -12t25 -13.5t24.5 -14.5t24.5 -17t21 -19t17.5 -22t11 -23.5t3.5 -27.5t-6 -31q-36 -113 -120 -204.5t-215 -191.5q-9 -9 -14.5 -15t-14 -18t-4.5 -19t20 -7 q93 -14 153 -17.5t106 -10t153 -33.5q11 0 29 -15.5t18 -32.5q9 -44 -18 -84t-66 -49q-113 -13 -190.5 -13t-117 5t-138.5 24.5t-181 32.5q-39 6 -55 38.5t-11.5 68t19.5 61.5q32 58 83.5 116t99.5 99t109 98t103 107q2 9 2 14.5t-6 14.5t-10 13t-11.5 10.5t-8.5 7.5 q-25 13 -79.5 13t-78.5 11q-34 15 -53.5 12t-39 -12t-34.5 -19t-39 -9.5t-53 16.5q-62 47 -37 168z" />
<glyph unicode="3" horiz-adv-x="692" d="M41 241q20 53 70 68q42 14 105 3t107.5 -21.5t104.5 8.5q14 0 35 16q11 10 6 15q-14 38 -52.5 68t-83 46.5t-92 37.5t-80 40t-47.5 54.5t7 80.5q18 32 57 55.5t90.5 47t77.5 41.5q-30 17 -71.5 19t-80 3.5t-63.5 18.5q-26 22 -30 53t9.5 57t41.5 45t61 19q6 -1 55 -5 t62 -5.5t53 -7t60 -12t48.5 -17.5t51.5 -25q46 -30 57 -64t-11.5 -71.5t-49 -66t-70.5 -68.5t-61 -58q10 -5 25.5 -25.5t25.5 -25.5q82 -16 144 -61t83 -113q16 -52 -8.5 -101.5t-66.5 -82.5t-99 -62q-104 -50 -222.5 -47t-219.5 58q-49 32 -29 85z" />
<glyph unicode="4" horiz-adv-x="753" d="M59 733.5q47 155.5 162 233.5q33 20 64.5 3.5t38.5 -44.5q11 -41 -1 -89.5t-32 -86t-31 -86.5t2 -91q11 -35 50 -62t78.5 -32t68.5 13q39 31 57.5 91t24 121.5t15 121t43.5 101t97 50.5q41 -29 52.5 -69.5t1 -86.5t-27 -91t-29 -97t-7.5 -90q5 -20 5 -39.5t-2 -34 t-9.5 -33.5t-12.5 -29t-16.5 -31.5t-15.5 -29.5q-15 -40 -22.5 -63.5t-15.5 -59.5t-6 -69t13 -66q4 -14 -8.5 -26.5t-35.5 -26.5t-30 -21q-57 -43 -112 33q-18 31 -16.5 75t9 80t-2.5 83q0 9 -4.5 13t-12.5 4t-16.5 -1.5t-20.5 -3.5t-20 -2q-92 0 -168.5 47.5t-99.5 118.5 q-54 117 -7 272.5z" />
<glyph unicode="5" horiz-adv-x="811" d="M26 485q-8 33 5 56q16 17 44.5 40.5t41.5 36.5q23 28 66 91t77.5 100.5t77.5 58.5q31 16 90.5 23.5t83.5 15.5q50 13 77.5 10.5t76.5 -11.5t77 -9q27 0 46.5 -17.5t19.5 -39.5q7 -40 -23.5 -73.5t-62.5 -33.5q-68 13 -124 15.5t-114 -7.5t-103 -43.5t-73 -89.5 q42 -18 138.5 -37t140.5 -39q32 -8 62.5 -29t43.5 -48q29 -35 31.5 -78t-20.5 -86q-80 -142 -218 -223t-292 -66q-41 4 -63 33.5t-20 67t15 73.5q42 56 65 70q26 16 50 6q10 0 20 -28.5t19 -28.5q79 -20 148.5 24t121.5 121q-44 46 -110 65.5t-126 19t-137.5 2t-128.5 17.5 q-15 8 -23 41z" />
<glyph unicode="6" horiz-adv-x="786" d="M36 522q27 123 93 226.5t172.5 180.5t230.5 107q75 18 126 -16q36 -24 23 -50q-7 -16 -32 -24q-464 -225 -442 -551q33 7 100.5 24.5t109 25t99 11.5t111 -11.5t104.5 -49.5q48 -36 44.5 -107t-44.5 -110q-51 -75 -110.5 -118t-143.5 -54q-154 -24 -275 54t-159 216 q-34 123 -7 246zM322 203q6 -25 20.5 -38.5t38.5 -15t46 1.5t54 11q34 8 47.5 12t29 15t18.5 29t-1 48q-3 23 -21 33.5t-41.5 10.5h-48.5q-7 -1 -11 -1q-63 -5 -102.5 -32t-28.5 -74z" />
<glyph unicode="7" horiz-adv-x="821" d="M18 848q9 28 35.5 61t48.5 33q68 0 146 13.5t133 28.5t141 42q166 51 283 -20q9 -9 13.5 -19.5t3.5 -23.5t-3 -21t-7.5 -23.5t-6.5 -19.5q-22 -49 -74 -153.5t-81 -168t-56 -156t-31 -173.5q0 -3 5.5 -18t7.5 -25.5t-3 -18.5q-21 -33 -57 -61.5t-69.5 -38t-51.5 15.5 q-41 65 -44.5 140t24 151.5t62.5 145.5t76.5 153.5t59.5 145.5q-74 0 -151 -18.5t-164.5 -47.5t-144.5 -41q-43 -8 -80.5 32t-14.5 85z" />
<glyph unicode="8" horiz-adv-x="886" d="M20 47q5 57 29 107.5t64 94t78.5 77.5t91 77.5t82.5 73.5q-25 32 -76.5 78t-87.5 79t-60.5 85t-15.5 108q205 153 582 105q8 62 41.5 102.5t87.5 34.5q36 0 47.5 -44.5t-4.5 -76.5q-53 -202 -275 -420q132 -132 129 -258q-1 -43 -19 -79.5t-50 -62t-67 -44.5t-82.5 -33 t-84 -22t-82.5 -15q-78 -17 -167.5 -12t-160.5 45zM295 190q52 -36 119.5 -22.5t103.5 63.5q28 37 26.5 69t-25 50t-48.5 6q-27 -10 -44 -16.5t-32 -16t-22.5 -15.5t-18 -20t-16 -23.5t-19 -33t-24.5 -41.5zM356 705q11 -34 46 -63.5t63 -20.5q54 21 84 71.5t0 81.5 q-19 21 -38 29t-46.5 0.5t-43.5 -15.5t-56 -30q-20 -19 -9 -53z" />
<glyph unicode="9" horiz-adv-x="622" d="M43 614q-31 108 20.5 204t155.5 149q36 18 100.5 29.5t134 12.5t119.5 -28t50 -86q-17 -136 -87.5 -401t-89.5 -406q0 -15 -6 -27.5t-18.5 -22t-22 -15t-27 -13t-22.5 -10.5q-30 -7 -72 15t-36 53q14 82 83 329q34 119 25 120q-1 0 -2 -1q-57 -29 -101 -40t-84.5 -4.5 t-70.5 42t-49 100.5zM211 711q-3 -43 32.5 -53t73.5 18q16 9 49 45t54.5 75t1.5 48q-65 26 -134 -19.5t-77 -113.5z" />
<glyph unicode=":" horiz-adv-x="325" d="M59 166q-6 55 17 92.5t60.5 50t78 9t68.5 -22.5q27 -20 38.5 -74t-3.5 -111t-54 -81q-57 -31 -101 -13.5t-71 59t-33 91.5zM59 776q-5 45 9.5 78t40.5 49t58 22t63 -0.5t53 -21.5q28 -20 38 -67.5t-5.5 -98.5t-55.5 -75q-57 -31 -100 -19.5t-69 47.5t-32 86z" />
<glyph unicode=";" horiz-adv-x="321" d="M57 166q-6 55 17 92.5t60.5 50t78 9t68.5 -22.5q22 -14 17 -84t-22.5 -149.5t-49 -151t-62.5 -88.5q-32 -19 -53 0t-30 66.5t-13 95.5t-6 105t-5 77zM57 776q-5 45 9.5 78t40.5 49t58 22t63 -0.5t53 -21.5q28 -20 38 -67.5t-5.5 -98.5t-55.5 -75q-57 -31 -100 -19.5 t-69 47.5t-32 86z" />
<glyph unicode="&#x3c;" horiz-adv-x="935" d="M0 600q0 89 78 164q64 52 152 98.5t160.5 76t157.5 75.5t146 98q4 4 11.5 4t18.5 -2t17 -2q65 0 94 -44t-6 -81q-40 -44 -99.5 -78t-119 -56.5t-119 -47t-113.5 -63.5t-89 -93q86 -52 187 -100t228 -103t193 -86q14 -8 26.5 -26t12.5 -33q4 -41 -26.5 -74.5t-73 -43 t-84.5 2.5q-15 10 -37.5 31.5t-30.5 26.5q-254 140 -578 280q-8 5 -36 13.5t-47 23t-23 39.5z" />
<glyph unicode="=" horiz-adv-x="561" d="M57 860q26 49 78 66.5t103 11.5t123 -13t118 -1q27 5 48 -6.5t30 -36.5q14 -43 -11.5 -70.5t-66.5 -38.5q-196 -71 -368 -10q-27 10 -48.5 42.5t-5.5 55.5zM68 483q-14 44 19.5 82.5t78.5 46.5q78 0 174 -75q16 -13 38.5 -7t41 18t41.5 15t41 -16q10 -4 16 3.5t9.5 15 t7.5 3.5q30 -33 21.5 -67.5t-44.5 -50.5q-60 -61 -147 -85t-171 5t-126 112z" />
<glyph unicode="&#x3e;" horiz-adv-x="792" d="M10 1018q-14 21 17 59.5t63 38.5q40 8 83 -3t98.5 -36.5t76.5 -32.5q254 -83 410 -231q34 -25 33 -56.5t-22.5 -56.5t-55.5 -47q-94 -60 -272.5 -203t-286.5 -206q-26 -15 -54 -9.5t-43 24t-19 43t17 48.5q6 9 12 17.5t15.5 16t14.5 12.5t18 12.5t16.5 10t19.5 11.5 t19 10q61 32 161 111t134 102q6 3 17 8t18.5 9t18.5 10t17 10.5t13 11t6 11.5t-2 12q-32 56 -86.5 91.5t-115 52t-121.5 31.5t-121 43.5t-99 74.5z" />
<glyph unicode="?" horiz-adv-x="675" d="M21 1230q9 45 47 68q78 16 111 11q20 -3 38 -11q35 -15 130.5 -48t162 -64t125.5 -76q18 -18 32 -42.5t7 -37.5q-14 -53 -47.5 -97.5t-77.5 -78.5t-88.5 -64.5t-90.5 -69t-73 -77.5q-22 -30 -15 -75.5t25 -84.5t22 -83.5t-24 -73.5q-13 -15 -49 -15t-59 15 q-85 58 -121 162t-8 196q15 46 52.5 80.5t84 57t94 45t91 59.5t65.5 86q-64 35 -203.5 78.5t-204.5 78.5q-35 16 -26 61zM83.5 88q-0.5 39 43.5 70q11 7 22.5 11.5t25 6t22.5 1.5t25.5 -0.5t23.5 -0.5q43 -6 60 -38.5t-1 -69.5q-20 -45 -80 -61.5t-98 11.5q-43 31 -43.5 70z " />
<glyph unicode="@" horiz-adv-x="1028" d="M35 332q-24 106 0 196q62 215 142 379.5t206 290.5q138 138 358 107q72 -10 128.5 -47t88.5 -90t52 -119t19 -132t-11 -129q-10 -47 -46.5 -76.5t-86.5 -54.5t-72 -47q-20 -16 -31.5 -89.5t-23.5 -98.5q-23 -53 -75.5 -96.5t-112.5 -64.5t-122 -9t-100 63 q-30 41 -31.5 98t13.5 107q16 69 41 131t62.5 119t91.5 91t118 34q24 0 46 -10.5t45 -34t37 -41t39 -51.5q7 -10 11 -15q15 -16 29.5 -3t23.5 38q50 140 -26 305q-29 64 -93 89t-132 9t-115 -63q-254 -254 -303 -678q-11 -106 59.5 -187.5t181.5 -125.5q67 -27 125 8 q7 -12 19.5 -13t23.5 4t21 9.5t14.5 1.5t1.5 -18q-3 -51 -35.5 -80.5t-80.5 -35.5t-98.5 1t-96.5 25q-21 8 -42 18.5t-36.5 19.5t-36.5 25.5t-31.5 24t-33 29t-28.5 27.5l-31 31l-29 29q-16 26 -37 99zM497.5 432.5q2.5 -25.5 20.5 -37.5q13 -10 26 -10.5t22.5 5.5t18 16.5 t13.5 18.5t8 15q36 65 43 129t-24 129q-115 -100 -125 -215q-5 -25 -2.5 -50.5z" />
<glyph unicode="A" horiz-adv-x="823" d="M42 172q11 44 22 75t25.5 75t21.5 77q64 289 137 508q17 48 31 125.5t31 138.5t50 105q8 15 38 26q23 9 47 9q5 0 13 -1q30 -3 40 -24q49 -104 83 -214t75.5 -292.5t54.5 -232.5q0 -12 11.5 -19t28 -15.5t23.5 -20.5q8 -13 8 -30.5t-8 -25.5q-18 -36 -18 -77q0 -11 1 -22 q6 -54 23.5 -93.5t31.5 -91.5q10 -37 11 -70q0 -13 -2 -25q-4 -27 -34 -43q-24 -13 -52 -13q-7 0 -15 1q-36 4 -56 29q-23 31 -34 79t-14 87.5t-20 79t-51 59.5q-45 25 -102 25q-15 0 -33 -2q-78 -9 -134 -52q-19 -14 -32 -43.5t-19.5 -62t-15.5 -69t-19 -64.5t-30 -48 t-47 -20h-1q-28 0 -75 20q-7 42 -7 72q0 34 12 80zM304 528q2 -18 18 -26q26 -14 68 -20q14 -2 27 -1q27 0 53 7q38 11 46 40q9 31 9 66.5t-3 60t-18.5 68t-22 59t-30 66.5t-27.5 59q-30 -37 -43 -80.5t-21 -103.5q-3 -22 -13.5 -52t-20.5 -54.5t-17 -48.5q-5 -17 -5 -31 q-1 -4 0 -9z" />
<glyph unicode="B" horiz-adv-x="813" d="M45 1169q-14 22 -14 44q0 25 18 49q33 46 66 47q20 -1 73 1q32 1 55 1h27q28 -1 70.5 -4.5t76.5 -13.5t64 -27q34 -20 97 -39.5t112 -44t80 -66.5q19 -37 8 -61q-26 -21 -77.5 -67t-95 -80.5t-89.5 -61.5q-10 0 -26 -15q-15 -15 2 -20q115 -22 201.5 -77t111.5 -140 q10 -34 9 -67q0 -53 -24 -101q-40 -80 -124 -164q-56 -56 -100.5 -95t-102.5 -79.5t-119 -62.5t-123 -25h-5q-29 0 -55 20q-17 14 -17 33q0 11 6 25q9 17 40 48t31 40q4 34 4 72q-1 5 -1 9q0 43 -1.5 74t-8.5 82.5t-10.5 74t-14 83t-13.5 76.5q-2 14 -11.5 39.5t-16.5 44.5 t-5.5 44t17.5 46q10 10 10 36.5t-10 67.5q-5 28 -4 62.5t5 64.5t-4 58t-32 43q-7 7 -38.5 9t-41.5 17zM334 1047q-1 -5 -1 -11q-1 -16 5 -41q8 -35 4 -53q9 -1 18 -1q52 0 98 31q54 36 68 83q7 16 -10 27t-54 23t-50 19q-13 8 -25 8q-38 0 -53 -85zM359 593q1 -21 5 -41 q4 -22 11.5 -54.5t9.5 -53.5q2 -15 7 -63.5t11.5 -78.5t18.5 -58q12 10 29 24t30 24t30.5 24.5t29 25.5t26.5 26.5t23 28.5t18 30.5t12 32t4 34.5q1 6 1 12q0 14 -4 26q-6 31 -38 62t-71 49.5t-80 18.5t-63 -25q-10 -16 -10 -44z" />
<glyph unicode="C" horiz-adv-x="921" d="M25 526q12 81 39 152t70 133t109 106.5t148 63.5q68 12 119 12q17 1 33 -1q60 -6 145 -31q38 -11 64 -46q14 -19 14 -39q0 -17 -10 -34q-9 -18 -25 -29t-29.5 -14.5t-36.5 -8t-36 -8.5q-17 -6 -41 -6q-32 0 -76 10q-47 11 -76 11q-19 0 -30 -4q-117 -41 -158 -159 q-21 -60 -21 -122q0 -59 19 -121q38 -125 158 -184q70 -34 141 -34q51 0 102 17q16 5 39 19t42 27t43 24.5t41 12t36 -10.5q34 -28 54 -57q17 -25 17 -52v-9q-3 -32 -36 -54q-118 -87 -279 -87q-107 0 -233 38q-154 49 -228 109q-124 103 -124 292q0 40 6 84z" />
<glyph unicode="D" horiz-adv-x="778" d="M41 1114.5q0 8.5 2 18.5t2 12q11 47 53 62q28 10 56 10q15 0 30 -3q144 0 250 -69q152 -102 262 -252q83 -120 83 -244q0 -23 -3 -45q-18 -148 -112.5 -273.5t-229.5 -191.5q-99 -51 -184 -51q-48 0 -92 16q-41 15 -70 54q-20 27 -20 52q0 11 4 23q6 10 23.5 22.5 t31 25.5t14.5 28q1 26 1 55q0 244 -46 660q0 11 -9 24t-22.5 28.5t-19.5 25.5q-4 4 -4 12.5zM285 993q0 -94 13.5 -406.5t25.5 -312.5q13 -3 25 -2q41 0 81 26q54 36 84 83q24 38 37.5 60.5t31.5 60.5t25 66q8 31 8 68q0 34 -12 66q-38 107 -123 192.5t-196 98.5z" />
<glyph unicode="E" d="M30 602v5q0 13 9 22q0 4 5 9t13 10.5t11 8.5q6 14 9 31.5t3 30t-1 33t-1 28.5q0 31 -12 93t-12 109.5t24 82.5q56 83 156 119q68 25 139 24q33 0 69 -6q108 -18 193 -82q16 -12 16 -29q-1 -15 -11 -31q-22 -38 -71 -44q-8 -1 -17 -1q-29 0 -69 10q-51 13 -85 20 q-10 2 -23 2q-27 0 -62 -11q-35 -16 -47 -52q-8 -24 -8 -50q0 -13 2 -27q7 -43 7 -89q0 -43 -11 -75q32 -18 78 -21q21 -1 41 -1q23 -1 45 1q35 3 71 4q5 0 10 -1q40 0 72.5 -20.5t51.5 -65.5q-27 -45 -75 -62q-41 -14 -80 -14h-14q-13 1 -27 1q-34 0 -69 -6q-50 -8 -75 -34 q-18 -19 -27 -46q-10 -28 -10 -65v-14q0 -28 2 -51q2 -28 8 -74.5t8 -68.5q28 -5 57 -6q41 -1 81 11q70 18 155.5 56t132.5 51l6 3t7.5 -2.5t8.5 -5.5t8 -7t7 -6q5 -21 5 -40q0 -26 -10 -49q-18 -39 -60 -54q-38 -13 -108.5 -41.5t-113.5 -44.5t-105 -28q-50 -10 -96 -10 q-11 0 -22 1q-14 3 -48 3.5t-52.5 7.5t-22.5 28q-20 62 -20 147t6 155q1 13 1 27q0 54 -15 123q-2 9 -12 24t-17 26.5t-9 27.5z" />
<glyph unicode="F" horiz-adv-x="712" d="M38 470q-8 11 -8 24q0 14 9 30q12 16 60 44t53 48q4 28 5 45.5t-5 45t-11 45t-13.5 45t-12.5 45.5q-48 190 -48 328q0 24 1 47q0 15 11.5 35t24.5 20q111 40 232 40q30 0 62 -2q154 -12 286 -85q24 -12 28 -29q1 -4 2 -9q0 -13 -10 -25q-13 -18 -29 -31.5t-36 -26.5 q-29 -15 -63 -15q-13 1 -26 3q-49 8 -85 25.5t-85 32.5q-35 11 -65 11q-12 0 -24 -2q-7 -37 -7 -75q0 -4 1 -9q0 -35 3 -69q4 -38 10 -74t15 -76t17.5 -73.5t19 -75t17.5 -72.5q7 -1 16 -1q23 0 57 4q48 4 90 8q22 2 44 2q20 0 38 -1q40 -3 63 -23q21 -19 21 -55v-6 q-2 -35 -40 -49q-36 -14 -79 -13h-5h-10q-42 0 -82 -8q-46 -9 -58 -34q-12 -36 -12 -63.5t13.5 -67t28 -69.5t32 -69.5t24.5 -68.5q6 -17 6 -32q0 -17 -8 -33q-16 -30 -44 -43q-27 -13 -59 -13h-2q-33 0 -53 18q-38 38 -59.5 96.5t-28.5 110.5t-26.5 112.5t-53.5 100.5 q-9 9 -20.5 7t-35 -6t-38.5 -1q-32 8 -48 32z" />
<glyph unicode="G" horiz-adv-x="806" d="M35 486q0 104 23.5 206t83 190.5t151.5 153.5q112 76 233 76h6q125 -2 232 -76q32 -25 23 -53t-42 -45t-73.5 -17t-73.5 9t-74 12q-12 2 -23 2q-27 0 -50 -6q-25 -7 -47.5 -23.5t-37.5 -35t-30.5 -48t-23.5 -49t-19 -49.5q-23 -61 -37.5 -121.5t-17.5 -129.5 q-1 -15 -1 -30q0 -51 9 -96q12 -57 48.5 -106.5t96.5 -77.5q23 -11 49 -11q12 0 26 3q39 8 52 37q40 76 46 104q2 11 2 21q0 34 -27 53q-60 30 -60 39q-17 23 -13.5 43t13.5 34.5t31 27t39.5 20t38.5 12.5q28 8 59 8q13 0 26 -1q45 -5 79.5 -25.5t49.5 -56.5q5 -14 5 -31 q0 -24 -12 -52q0 -4 -20.5 -13.5t-20.5 -14.5q0 -41 -18 -110t-21 -87q-5 -29 -44 -65.5t-44 -43.5q-22 -16 -67 -23.5t-60 -14.5q-56 -26 -114 -26q-14 0 -28 1q-73 8 -134.5 40t-107 93t-59.5 137q-22 112 -22 216z" />
<glyph unicode="H" horiz-adv-x="802" d="M62 679q11 37 14 58v11q0 45 -7 140q-4 57 -4 105q0 42 3 77q7 75 41 136q19 36 75 42q11 1 23 1q43 0 84 -20q50 -42 50 -83q0 -4 -1 -9q-6 -35 -24 -101q-16 -66 -26 -110q-8 -36 -8 -79v-19q2 -55 25 -95q22 -30 97 -42q20 -3 35 -3q44 0 55 25q24 65 28 157 q1 36 1 69q1 53 -3 97q-2 21 -2 43q0 57 10 123q8 47 52 68q31 15 62 15l26 -3q44 -9 57 -37q23 -61 27 -138q1 -26 1 -50q0 -48 -5 -91q-8 -64 -16 -147q-5 -54 -4 -98q0 -24 1 -45q3 -15 34 -49t34 -56q2 -19 -20 -39.5t-23 -27.5q-10 -41 -10 -91q0 -22 2 -46 q6 -79 18 -137.5t25 -139t14 -141.5q-27 -6 -51 -6q-36 0 -64 13q-47 21 -70.5 63.5t-40 106t-22.5 124t-17.5 129t-27.5 110.5q-12 31 -42 46q-29 14 -58 14h-4q-32 -1 -59 -9.5t-32 -19.5q-23 -34 -27 -81q-2 -16 -2 -32q0 -30 6 -60q8 -45 16 -99q8 -52 10 -100v-11 q0 -43 -15 -88h-10q-59 1 -101 23q-46 24 -67 61.5t-33 94t-13.5 105.5t-4.5 110.5t-8 95.5q-2 13 -10 45q-7 26 -7 38t13 57z" />
<glyph unicode="I" horiz-adv-x="329" d="M56 717.5q0 68.5 6 171t20 190.5q12 82 80 106q21 8 44 8q48 0 99 -36q26 -26 26 -46q0 -7 -3 -13q-39 -114 -53 -250q-10 -98 -10 -180q-1 -32 1 -62q6 -106 13 -256q5 -104 5 -182q0 -34 -1 -62q-2 -23 -47 -31q-12 -2 -25 -2q-32 0 -61 15q-15 7 -27 17t-21 19.5 t-16 24.5t-11.5 25t-7.5 29.5t-4.5 28.5t-2.5 31t-1 29.5v32v29.5q0 52 -1.5 173.5t-1.5 190z" />
<glyph unicode="J" horiz-adv-x="784" d="M33 424q0 44 0.5 65t7.5 55.5t20 57.5q29 30 70 44q26 8 51 8q14 0 29 -3q44 -7 56 -56q4 -14 4 -29q0 -35 -21 -72q-12 -23 -18 -56q-3 -22 -3 -45q0 -12 1 -25q3 -36 23.5 -67.5t55.5 -44.5q26 -11 55 -11q19 0 40 5q50 13 63 55q22 65 27 137q3 37 3 71q0 30 -3 57 q-4 56 -25 137.5t-36 127t-48 136.5t-45 127q-5 16 -5 32q0 25 13 48q15 26 65.5 33.5t63.5 25.5q12 -12 35.5 -16.5t39 -10t15.5 -22.5q10 -81 38.5 -187.5t54 -194.5t44.5 -183q15 -73 15 -145q0 -22 -1 -44q-6 -94 -42 -178q-73 -165 -313 -165q-73 0 -162 15 q-46 8 -78.5 32.5t-49.5 53.5t-26.5 73.5t-11.5 77.5t-2 81z" />
<glyph unicode="K" horiz-adv-x="714" d="M31 1217q0 34 40.5 63t84.5 31h7q42 1 64 -21q23 -24 25 -64q1 -13 1 -27q0 -27 -3 -55q-4 -42 -4 -90t12 -75q7 -15 22 -15q25 0 74 44q32 20 94.5 82.5t104.5 78.5q27 9 62 -5.5t57 -41.5t12 -49q-29 -48 -79.5 -89t-98 -65.5t-106.5 -59.5t-95 -68q-13 -13 6.5 -48 t57 -82t45.5 -61q22 -24 107 -104.5t130.5 -140.5t61.5 -124q1 -3 1 -7q0 -20 -28 -40q-32 -24 -74 -28q-6 -1 -13 -1q-35 0 -67 21q-50 40 -154.5 178t-113.5 148q-5 -27 -5 -63q0 -122 60 -353q7 -23 7 -56v-14q-2 -42 -15 -61q-22 -41 -61 -53q-13 -4 -27 -4 q-27 0 -55 14q-16 7 -31.5 26t-15.5 39q0 119 -51 519q-39 291 -39 721z" />
<glyph unicode="L" horiz-adv-x="880" d="M29 208q2 36 7 86t5 79q0 418 80 860q6 29 36 49t64 24q7 1 14 1q25 0 49 -12q30 -15 35 -48q10 -64 10 -137q1 -32 -1 -65q-6 -110 -24.5 -202.5t-33.5 -204.5q-16 -112 -18 -206v-17q0 -87 22 -190q76 0 105.5 0.5t96 5t115 16.5t89.5 32q47 33 87 33q21 0 40 -9 q37 -36 61 -74q15 -24 15 -39q0 -9 -6 -16q-53 -61 -126 -90q-73 -28 -153 -32q-56 -2 -112 -3l-48 1h-21q-71 0 -149 -9q-90 -10 -157 -41q-37 23 -57 56.5t-24 74.5q-2 26 -2 50q0 14 1 27z" />
<glyph unicode="M" horiz-adv-x="1232" d="M30 282q-2 17 -2 34q0 42 10 80q14 53 36 129.5t28 121.5q15 100 31 299.5t31 300.5q5 37 43 54q25 11 52 11q13 0 27 -2q42 -8 56 -34q50 -67 79.5 -150.5t55.5 -197t45 -170.5q1 -1 11.5 -13t17 -17t10.5 -1q29 42 57.5 109t48 126.5t50 121t63.5 102.5q34 42 88 60 q28 10 60 9q30 0 63 -8q43 -124 74.5 -283t47.5 -288t46.5 -290t71.5 -286q3 -10 3 -18q0 -24 -22 -45q-30 -28 -71 -37q-43 -8 -68 -8t-33 8q-47 94 -73 216t-33.5 222.5t-30 223.5t-61.5 215q-44 -70 -92 -214t-78 -204q-5 -10 0 -35t0 -35q-26 -49 -74 -75 q-26 -14 -52 -15q-22 0 -44 10q-31 8 -55.5 34t-24.5 56q-23 204 -90 230q-14 5 -20 -2.5t-6 -25t1 -36.5t1 -41t-5 -35q-15 -35 -15 -85q0 -5 1 -9q0 -45 4 -81q2 -20 2.5 -41t-2.5 -44q-5 -38 -49 -59q-39 -18 -83 -18h-13q-51 3 -74 28q-38 41 -44 102z" />
<glyph unicode="N" horiz-adv-x="694" d="M47 174q12 97 23.5 381t44.5 442q4 19 32 26t58 1.5t43 -18.5q53 -70 92 -176l78 -212t92 -176q15 38 19 76q2 21 2 48q1 24 -1 52q-4 61 -4 76q0 63 -20 153q-22 90 -36 174q-8 48 -8 91q0 33 5 62q4 28 37 42q21 9 43 8q11 0 25 -2q36 -8 46 -32q27 -71 44 -146.5 t23.5 -167.5t7.5 -148.5t1 -166.5v-43q0 -96 -16.5 -170t-67.5 -125q-28 -31 -76 -34h-8q-42 0 -67 26q-29 33 -58.5 79t-46 76t-47.5 92t-41 81q-22 -57 -24 -134v-37q0 -54 4 -98q1 -11 0 -22q0 -50 -15 -113q-7 -25 -37 -37q-19 -8 -42 -8q-13 0 -27 2q-38 8 -62 35 q-16 19 -16 43z" />
<glyph unicode="O" horiz-adv-x="827" d="M55 582q20 68 62 134.5t97 120.5t122 87q68 34 136 40q11 1 21 0q57 0 117 -28q71 -34 129 -109q77 -99 87 -225l2 -38q0 -104 -46 -198q-54 -110 -155 -178t-211 -72q-6 0 -10 -1q-103 0 -193 63q-97 70 -143 180q-27 65 -27 133q0 45 12 91zM268 457q9 -41 25 -75.5 t42 -65t59 -36.5q10 -2 20 -3q26 0 57 12q95 43 133 145q23 60 23 123q0 44 -11 90q-14 55 -78 79q-43 16 -83 15q-21 0 -41 -4q-48 -9 -102 -119q-46 -93 -45 -144q-1 -9 1 -17z" />
<glyph unicode="P" horiz-adv-x="972" d="M21 1191q12 50 42 62q146 58 298 59q93 0 189 -23q252 -58 421 -251q3 -27 3 -52q0 -46 -10 -88q-16 -66 -48.5 -116t-84 -95t-106.5 -77.5t-123.5 -63.5t-127.5 -53t-126 -45q-47 -16 -69 -24q-1 -12 -1 -27q0 -49 15 -131q13 -66 13 -112q0 -27 -5 -48q-18 -54 -73 -86 q-37 -21 -77 -21q-20 0 -42 5q-10 5 -18.5 13t-18.5 21l-9 13q-21 162 -21 360t21 433q4 59 7 86t15.5 74t33.5 79q-10 4 -38 10.5t-40 12.5q-23 25 -23 59q0 12 3 26zM268 710q3 -36 33 -46q34 -12 72 -12q48 0 102 20q96 34 171 110t97 164q-35 27 -59.5 44.5t-61 41.5 t-65.5 38.5t-66 29t-69 20.5q-30 6 -65 6h-5q-38 0 -73 -10q-4 0 6.5 -9t24.5 -26t14 -32q0 -29 -17.5 -80t-17.5 -78q0 -25 -12 -85q-10 -48 -10 -81q0 -8 1 -15z" />
<glyph unicode="Q" horiz-adv-x="866" d="M39 698q-10 38 -10 76t10 76q20 75 70 160q26 36 62.5 65t89.5 62.5t77 50.5q23 23 55.5 37.5t77.5 28.5t68 24q36 18 61 26q20 6 45 6h13q32 -2 59 -22q27 -19 41 -52q9 -18 9 -36q0 -13 -5 -26q-12 -30 -53 -35q45 -87 75.5 -158t56 -164t26.5 -170v-5q0 -75 -27 -154 q-29 -82 -92 -148q18 -52 24.5 -72.5t15.5 -64.5q8 -33 8 -61q0 -9 -1 -17q-3 -34 -17 -66q-8 -32 -44 -50q-17 -9 -33 -9q-17 0 -33 10q-29 20 -44 57.5t-17.5 72t-14 69.5t-35.5 51q-34 19 -92.5 31t-113 28.5t-93.5 51.5q-99 89 -138 135q-17 22 -32 43 q-11 17 -19.5 38.5t-12 34.5t-9.5 40.5t-8 35.5zM229 750q8 -119 119 -230q15 -15 20.5 -21t22 -21.5t27.5 -21t26 -11.5q10 -4 18 -4q6 0 11 2q13 4 25 16q11 3 11.5 12.5t-5 20t-11.5 24.5t-6 23q0 27 2 41.5t14 32.5t36 26q18 7 34 7q17 0 31 -8q29 -14 66 -50l8 -8 q15 56 15 113q0 77 -29 155q-49 134 -156 201q-28 19 -57 19q-21 0 -43 -10q-51 -23 -93 -71.5t-67 -114.5q-20 -56 -20 -103q0 -10 1 -19z" />
<glyph unicode="R" horiz-adv-x="839" d="M44 436v24q0 38 2 96q2 78 1 110q0 47 14.5 111.5t28.5 112.5q14 46 19 108q1 13 1 26q0 44 -14 76q-2 8 -7.5 30.5t-7.5 35t-2.5 30.5t6.5 30.5t21 20.5q112 63 229 62q15 -1 31 -1q134 -10 254.5 -84.5t194.5 -193.5q21 -33 25 -67q1 -7 0 -14q0 -27 -11 -52 q-14 -32 -34.5 -60.5t-53.5 -57.5t-60.5 -49.5t-62.5 -43.5q68 -360 197 -610q15 -28 -13 -51t-67 -25h-8q-34 0 -59 16q-49 41 -81.5 100t-49.5 121.5t-32.5 125t-43 126.5t-68.5 109q-19 22 -67 22h-10q-56 -2 -72 -32q-15 -39 -15 -91q0 -14 1 -29q5 -71 18 -122t28 -122 q17 -81 17 -121q1 -28 -45 -47q-33 -13 -65 -13q-13 0 -27 2q-37 13 -60 59q-19 51 -31 105.5t-16.5 119t-4.5 107.5zM252 810q1 -10 6.5 -17t15.5 -9q41 -10 83 -9q49 1 99 13q94 24 162 84q20 11 36 31q8 11 9 21q0 9 -6 18q-27 56 -78 96t-104 57.5t-113 24.5h-6 q-22 0 -36 -18q-16 -22 -19.5 -50t-7 -66t-8.5 -54q-2 -7 -8 -22t-10 -26t-8.5 -26t-6.5 -26q-1 -7 0 -13v-9z" />
<glyph unicode="S" horiz-adv-x="903" d="M12 987q2 15 15 31q51 64 117.5 109t147.5 72t149.5 42.5t167 34t155.5 33.5q13 3 25 3q27 0 55 -14q40 -22 53 -57q6 -13 6 -25q0 -22 -21 -44q-32 -32 -73 -42q-66 -24 -227.5 -46.5t-241.5 -65.5q-38 -20 -38 -42q0 -6 3 -13q29 -45 75 -89.5t92.5 -79t100 -73t98 -71 t85.5 -75t64 -83.5q22 -40 32 -96q3 -18 3 -38q0 -38 -13 -77q-23 -84 -84.5 -146t-143.5 -92.5t-176 -40.5q-38 -4 -75 -4q-55 0 -111 9q-92 15 -170 50q-54 24 -59 75q-1 6 -1 13q0 45 30 87q34 48 85 71q19 3 33.5 -7t22 -24.5t19.5 -29.5t26 -19q12 -3 60.5 -6t74.5 -16 q26 -12 51.5 -15.5t53 3.5t45.5 14t50 22t45 21q32 25 37 64q1 8 1 16q0 30 -15 55q-53 67 -130.5 131.5t-144 108.5t-144 108.5t-130.5 132.5q-10 13 -28.5 33.5t-28 32.5t-17.5 28q-7 12 -7 24q0 4 1 7z" />
<glyph unicode="T" horiz-adv-x="884" d="M6 1110q4 54 57 82q110 55 207.5 81.5t178.5 29t182.5 3t218.5 3.5q4 0 9.5 -7t11 -18t8.5 -14q5 -15 5 -29q0 -27 -18 -50q-27 -36 -75 -52q-80 -17 -113 -17h-2q-5 0 -10 1q-33 0 -95 -3q-47 -228 -64.5 -462.5t-25.5 -553.5q0 -24 -22 -45t-42 -31t-55 -24 q-11 -4 -21 -4q-19 0 -33 14q-22 22 -25 49q-2 42 -2 91q1 170 27 436q34 342 34 491q0 14 -7 20t-20 4t-24 -5.5t-27 -10t-22 -8.5q-18 -3 -46 -16t-48.5 -23t-48.5 -16t-46 6q-48 22 -48 70q1 4 1 8z" />
<glyph unicode="U" horiz-adv-x="983" d="M48 571q-6 57 -5 113q1 60 7 122q12 118 48 238q18 58 78 86q30 14 61 14t64 -14q33 -38 33 -76q0 -10 -2 -20q-40 -94 -58 -204q-12 -75 -12 -149q0 -34 2 -67q8 -107 55 -199.5t130 -142.5q41 -26 78 -26q9 0 17 2q44 8 78 38t59.5 79.5t41.5 101t22 102.5 q15 62 17 136v27q0 58 -6 106q-6 58 -13.5 136.5t-7.5 133.5q-3 26 10 45.5t41 32.5t55 20.5t64 16.5q7 1 10 2q0 -17 20.5 -24.5t20.5 -16.5q14 -102 20 -185q5 -65 7 -138q0 -21 -1 -43q-2 -98 -17 -180.5t-49 -170t-87 -164.5q-65 -94 -171.5 -161t-219.5 -76 q-10 -1 -21 -1q-100 0 -179 80q-82 87 -130 197.5t-60 228.5z" />
<glyph unicode="V" horiz-adv-x="833" d="M27 965q4 19 27.5 42t53 38.5t58.5 12.5t41 -32q27 -61 51 -150t39 -161t46.5 -156.5t76.5 -146.5q51 113 86 260.5t67 307.5t68 267q9 30 59 51q31 13 60 13q18 1 35 -5q37 -11 37 -53q0 -7 -1 -16q-45 -297 -180 -784q-48 -162 -82 -383q-7 -29 -46 -49.5t-85 -20.5 q-72 0 -80 31q-18 64 -77 160t-74 141q-20 61 -59 155.5t-66 160.5q-26 64 -44 152q-13 63 -13 121q0 22 2 44z" />
<glyph unicode="W" horiz-adv-x="1247" d="M55 956q11 38 49 68t77 32h4q36 0 63 -34q27 -40 32 -92q2 -19 2 -36q0 -32 -6 -62q-8 -46 -12 -103q-1 -15 -2 -28q0 -40 8 -76q6 -25 13.5 -70t13.5 -73t21 -63.5t38 -62.5q36 40 64.5 97.5t45.5 107t44 107t59 96.5q43 52 88 62q13 3 25 2q32 0 58 -18 q38 -24 72.5 -70t59 -97t41.5 -104q0 -10 8 -27.5t18.5 -29.5t16.5 -7q42 51 59 115q14 52 14 101q0 11 -1 23q-4 60 -10 130q-6 72 -10 134q-1 13 -1 26q0 50 13 104q16 33 66 54q25 10 45 10q21 0 38 -11q34 -27 52.5 -63t22.5 -80q3 -29 3 -55q0 -13 -1 -25 q-2 -38 -6.5 -90.5t-4.5 -83.5q0 -192 -86 -418q-3 -5 -13.5 -25.5t-15.5 -29.5t-15 -24.5t-20 -27t-22 -20.5q-41 -33 -83 -37q-5 0 -11 -1q-35 0 -65 21q-34 24 -60.5 57t-48.5 77q-76 151 -129 225q-18 -25 -37 -60t-34.5 -68t-34.5 -72t-37 -71t-41.5 -65t-47.5 -54 t-57 -38.5t-69 -18.5h-8q-33 0 -73 7q-125 173 -169 393q-22 113 -23 227q0 107 20 215z" />
<glyph unicode="X" horiz-adv-x="1017" d="M10 282q-1 10 -1 18q0 18 7 28q40 41 104 86.5t115 78.5t104.5 83t82.5 106q-66 77 -172.5 235t-169.5 234q-20 23 -21 48t12.5 44.5t34.5 35.5q22 17 47 25q24 8 46 8h3q24 0 38 -12q56 -40 107.5 -102.5t84.5 -119t79 -134t81 -125.5q36 22 72 61.5t71.5 79.5t71.5 62 q56 29 106 29q39 0 74 -17q10 -10 14.5 -28.5t-2.5 -36.5q-22 -43 -63 -84t-79.5 -68.5t-83.5 -67.5t-73 -79q32 -55 101.5 -167t120 -199t88.5 -167q6 -15 7 -27v-9q-1 -7 -1 -13q-2 -10 -11 -20.5t-14 -16t-21.5 -16t-21.5 -13.5t-24 -14q-17 -9 -36 -9q-14 -1 -30 5 q-36 14 -51 47q-45 115 -113.5 223.5t-165.5 235.5q-31 -17 -67 -44.5t-65 -55t-64.5 -58t-66.5 -53t-70 -41t-75 -20.5q-8 -1 -17 -1q-30 0 -66 7q-23 6 -27 38z" />
<glyph unicode="Y" horiz-adv-x="739" d="M23 1223v7q0 20 15 38q17 22 43 32t53 12h6q24 0 38 -14q39 -34 66 -102.5t40.5 -135.5t38 -141t58.5 -114q27 36 50.5 105t38.5 131t45 125t71 94q36 22 74 24h5q36 0 59 -22q16 -15 16 -34q0 -11 -5 -24q-160 -400 -233 -557q-10 -30 -10 -59q0 -53 36 -99q7 -7 7 -23 q0 -22 -15 -60q-10 -9 -51 -23.5t-51 -40.5q-5 -24 -27.5 -129t-38.5 -174t-33 -127q-7 -26 -43 -40q-17 -7 -36 -7q-24 0 -52 10q-18 8 -28 20.5t-11.5 32.5t-1 32t3.5 36q1 5 1 8q9 60 43.5 162.5t58.5 194.5q18 69 18 123q0 18 -2 34q-10 74 -47 171t-76.5 177.5 t-76.5 180t-47 176.5z" />
<glyph unicode="Z" horiz-adv-x="1101" d="M2 1123q7 35 40.5 67t68.5 39q68 16 138 19q16 1 33 1q55 0 113 -8q76 -10 131.5 -20.5t145.5 -31.5t137 -30q65 -22 107 -58q37 -32 37 -75q0 -5 -1 -10q-9 -79 -40 -158t-70 -141t-96.5 -133.5t-106.5 -122.5t-115 -121t-106 -117q86 -10 156 -10q15 1 28 1 q80 2 128 11q41 8 104 8q10 -1 22 -1q80 -2 184 -21q39 -13 53 -45q8 -19 8 -38q1 -13 -3 -26q-10 -32 -38.5 -57t-66.5 -25q-171 0 -364 -5t-365 -5q-18 0 -52 -4q-33 -6 -57 -6h-5q-22 0 -46 4q-27 4 -46 23t-29 53q0 61 69 106q22 19 75 64t78 66.5t73.5 65t74 69.5 t66.5 69.5t64.5 75t53.5 76t48.5 83.5t35 85.5t25.5 93.5q4 26 -23.5 37.5t-75 18.5t-67.5 16q-56 22 -129 26q-24 1 -47 2q-45 0 -84 -5q-30 -4 -62 -4q-30 -1 -62 3q-66 6 -113 35q-28 21 -28 48q0 6 1 12z" />
<glyph unicode="[" horiz-adv-x="1067" d="M8 158q45 49 45 82q74 239 127 555q13 71 -3 219t3 221q123 61 276 72t295.5 -18t274.5 -89q47 -27 40 -63.5t-49.5 -68.5t-82.5 -30q-75 3 -240.5 30.5t-257.5 27.5q-31 -332 -151 -787q0 -7 -1 -21.5t-0.5 -23.5t2 -20t7.5 -17.5t16 -9.5q233 -36 463 35q31 5 47 -18.5 t15 -56.5t-5 -64q-5 -11 -15.5 -21t-19.5 -16t-25 -12t-23 -8.5t-24.5 -7.5t-19.5 -5q-389 -105 -659 45q-5 0 -9 12.5t-10 30t-16 27.5z" />
<glyph unicode="\" horiz-adv-x="845" d="M2.5 1179.5q-7.5 39.5 10.5 71t63 45.5q16 1 37 5.5t33.5 7t25 1.5t18.5 -10t7 -28q22 -75 54.5 -154.5t61.5 -140t78 -146.5t76.5 -131.5t86.5 -140.5t81 -131q24 -39 69.5 -102.5t78.5 -116t51 -100.5q15 -45 9.5 -71.5t-28 -36t-49.5 -6.5t-55 18t-45 36 q-72 85 -135.5 173t-107.5 154.5t-101.5 170t-87 161t-96.5 190t-101 198.5q-27 44 -34.5 83.5z" />
<glyph unicode="]" horiz-adv-x="907" d="M23 1217q7 47 49.5 68.5t87.5 23.5q72 4 234 -21t249 -12q34 4 67.5 5.5t70.5 -0.5t64 -11.5t45 -25t17.5 -43.5t-22.5 -64q-72 -119 -101 -267.5t-23 -275t32 -275.5q3 -8 15 -40.5t16 -47.5t7.5 -41t-3.5 -47.5t-23 -40.5q-11 -11 -32.5 -22.5t-37.5 -11.5 q-57 -7 -152.5 -27.5t-159.5 -32.5t-147 -8.5t-151 33.5q-44 19 -51 52t12.5 62.5t50.5 45.5q37 20 92.5 25t102.5 1t102 3t94 30q25 15 25.5 49t-12 85t-13.5 73q-4 101 29.5 311t28.5 322q-86 -7 -250.5 1.5t-210.5 8.5q-35 0 -68.5 36.5t-33.5 78.5z" />
<glyph unicode="^" horiz-adv-x="636" d="M53 887q30 42 80.5 111t78 107.5t64 95t66.5 110.5q0 3 6 3t17.5 -1.5t17.5 -1.5q29 0 41 -6q20 -26 115.5 -243.5t97.5 -234.5q-7 0 -19 -15.5t-22 -12.5q-9 5 -35.5 7.5t-47.5 6t-24 10.5q-57 143 -124 232q-17 -33 -32 -57.5t-36.5 -50t-31.5 -36.5t-43.5 -44.5 l-47.5 -47.5q-23 -17 -55.5 -15t-59.5 13q-42 18 -6 70z" />
<glyph unicode="_" horiz-adv-x="378" />
<glyph unicode="`" horiz-adv-x="337" d="M59 1248.5q17 30.5 55 48.5t72 14q44 -5 68 -44t41 -104q5 -19 12 -44.5t11.5 -41t9.5 -35.5t7 -32t2.5 -26t-2.5 -22t-8 -16t-14.5 -12t-23.5 -6q-23 -3 -42.5 8.5t-30 24t-26.5 38.5q-24 34 -43.5 60.5t-36.5 50.5t-47 70q-21 38 -4 68.5z" />
<glyph unicode="a" horiz-adv-x="724" d="M41 332q8 87 49 141q46 62 110 101t122 50q58 12 110 14q17 1 33 1q29 0 51 -3q32 -4 33 -3q10 16 15 44.5t-1.5 54.5t-27.5 30q-29 6 -57.5 6.5t-51 -3.5t-49.5 -12.5t-47 -17t-49.5 -20t-51.5 -19.5q-28 -10 -49.5 9.5t-29 50.5t-10 59.5t6.5 36.5q57 39 135 63.5 t158 29.5q11 1 21 0q68 0 128 -27q70 -32 103 -101q28 -60 31 -132q1 -14 1 -27q0 -56 -10 -102q-12 -57 -30 -138.5t-22 -138.5q-13 -196 -36 -267q-25 -67 -63 -67q-16 0 -35 12q-14 9 -25 28.5t-19.5 32.5t-20.5 13q-29 5 -86.5 12.5t-92 14.5t-79 21.5t-77.5 41 t-56 65.5q-32 49 -32 117q0 14 1 29zM188 299q0 -24 29 -46q30 -23 73 -36t87 -21q33 -6 60 -5q9 1 17 1q33 2 38 13q5 29 18 71q12 44 19 70q6 23 6 55v9q-1 38 -17 77q-29 -11 -78.5 -19t-89 -15.5t-78 -22.5t-60.5 -47q-24 -34 -24 -84z" />
<glyph unicode="b" horiz-adv-x="821" d="M27 758q5 10 21.5 26.5t21.5 26.5q3 38 3 72q-1 31 -3 57q-4 50 -4 114v14q0 73 14 130q7 33 36.5 66.5t63.5 43.5q8 2 15 3q25 0 47 -27q32 -33 40 -76q3 -19 2 -38q0 -25 -4 -50q-10 -45 -22 -90q-11 -41 -11 -87q0 -4 1 -8q1 -50 24 -91q89 -4 170 -23.5t155 -55.5 t129.5 -95.5t82.5 -137.5q13 -36 13 -74q0 -58 -29 -118q-48 -100 -134 -162q-137 -98 -258 -146q-83 -33 -168 -33q-38 0 -77 7q-14 3 -29.5 24t-24.5 42q-8 69 -13.5 263.5t-29.5 303.5q-2 6 -14.5 33t-16.5 47q-2 11 -3 21q0 9 2 18zM252 672q0 -101 2 -158t14 -145 t37 -158q54 4 110 22t105 48t79 76q28 43 28 93v7q-2 66 -64.5 120.5t-148.5 79.5q-61 18 -118 18q-22 0 -44 -3z" />
<glyph unicode="c" horiz-adv-x="774" d="M29 532q34 195 170 316q8 7 34.5 31t37.5 33.5t37 31t40.5 31t40.5 26t43.5 22.5t42.5 14q24 8 43 8q0 -1 2 -1q20 0 44.5 -4t47.5 -14q33 -13 33 -47q0 -14 -6 -33q-15 -43 -45.5 -72t-61 -41.5t-75 -32.5t-74.5 -42q-152 -117 -160 -246l-2 -30q0 -94 45 -160 q15 -24 39.5 -41.5t42.5 -25t55 -19t52 -17.5q35 -11 61 -4.5t55 25t51.5 38t50.5 35.5t52 17q31 2 43 -16q7 -12 7 -28q-1 -9 -3 -20q-6 -29 -15.5 -52.5t-19.5 -39.5q-36 -56 -89.5 -86.5t-116.5 -34.5q-21 -1 -41 -1q-41 0 -79 5q-57 8 -124 27q-141 42 -212 168 q-53 94 -53 202q0 38 7 78z" />
<glyph unicode="d" horiz-adv-x="757" d="M29 459q0 72 33 128.5t89.5 95t114.5 67.5t127 64t109 67q21 18 29 56t13 86t17 75q23 39 63 61q24 13 46 13q14 0 28 -5q14 -7 27 -16.5t25 -27.5q9 -14 9 -27q0 -4 -1 -9q-91 -248 -91 -563q0 -215 42 -461q0 -14 -28.5 -31.5t-51.5 -17.5h-8q-25 0 -43 15 q-22 18 -32 42t-24 46.5t-30 25.5q-18 0 -58 -2.5t-63 -2.5t-55.5 8t-59.5 26l-37.5 25t-41 28t-36.5 27.5t-37 32.5t-28.5 34.5t-26 41.5t-14 45t-6.5 53zM236 487q11 -77 84 -131q48 -35 98 -36q26 0 53 10q-4 27 -4 61q-1 53 9 125q16 118 16 158q-43 0 -89 -12t-87 -34 q-41 -20 -64 -58q-18 -29 -18 -62q0 -11 2 -21z" />
<glyph unicode="e" horiz-adv-x="694" d="M45 578v9q0 147 97 239q81 77 194 77q26 0 55 -4q122 -18 213 -119.5t90 -228.5q-14 -43 -80.5 -89.5t-148.5 -93t-111 -73.5q-11 -3 -25.5 -16.5t-6.5 -26.5q26 -45 62 -63q25 -13 56 -13q13 0 26 2q46 8 83 22.5t90 41.5q35 -24 39 -68q1 -6 1 -12q-1 -38 -23 -68 q-26 -36 -66 -41q-7 -1 -45 -7t-51 -8t-46 -4q-16 -1 -29 -1.5t-23 1.5q-19 2 -46 7.5t-51 15.5q-246 110 -254 521zM228 634q-6 -28 -5 -55q1 -28 7 -54q14 -50 38 -52q183 8 221 129q8 17 8 33q1 17 -9 33q-18 30 -54 44t-78 18q-7 1 -13 0q-33 0 -60 -15q-43 -22 -55 -81 z" />
<glyph unicode="f" d="M27 381q9 15 33.5 28t41.5 27.5t15 38.5q-3 39 -27 167q-20 100 -20 164q0 19 2 34q19 165 159 299q54 52 129.5 84.5t150.5 38.5q10 1 20 1q63 0 118 -33q63 -39 86 -122v-7q0 -24 -17 -43q-21 -22 -48 -18q-24 3 -61 11.5t-62.5 14.5t-59.5 6t-65 -11 q-67 -24 -109.5 -69.5t-57.5 -101.5q-13 -47 -13 -102v-18q3 -65 19.5 -125.5t43.5 -118.5q29 6 103.5 41t142.5 59q45 15 77 15q16 0 29 -4q29 -3 40.5 -31t-1.5 -57q-11 -29 -61.5 -55.5t-104 -42.5t-99.5 -38t-50 -44q-1 -8 -1 -16q0 -30 20 -62q26 -41 63.5 -86.5 t48.5 -79.5q13 -25 -13 -45.5t-62 -24.5q-12 -1 -23 -1q-22 0 -41 5q-42 26 -72.5 77t-59.5 99t-67 70q-7 2 -48 -0.5t-63 4.5q-20 -1 -31 23q-7 17 -7 33q0 8 2 16z" />
<glyph unicode="g" horiz-adv-x="669" d="M48 718q17 90 91 152q69 59 149 95t171 43q12 1 25 1q77 0 145 -38q17 -8 31 -25q11 -13 11 -28q0 -5 -1 -9q-32 -68 -50.5 -145t-24.5 -143q-4 -47 -4 -103q0 -24 1 -50q2 -86 7.5 -146t15.5 -154t14 -148q5 -32 5 -66v-17q-2 -43 -8.5 -80t-29 -70.5t-59.5 -54.5 q-59 -33 -131 -36h-17q-63 0 -121 20q-64 24 -117 73t-75 115q-9 28 3.5 51.5t34.5 34.5t47.5 10t39.5 -18q16 -15 45.5 -52t50.5 -59.5t57 -40.5q27 -13 57 -13q8 0 17 1q8 3 15 10.5t10 13.5t8 17t6 14q11 64 13 129v26q0 54 -6 114q-8 74 -16 123.5t-24 137.5q0 3 3 17 q10 42 -3 43q-5 0 -14 -6q-88 -53 -162 -53q-38 0 -72 14q-37 16 -62.5 45.5t-53.5 79.5q-26 60 -26 122q0 26 4 53zM209 668q8 -54 27.5 -98t50.5 -44h7q18 0 33 8q18 10 32 30.5t24 40.5t22.5 48.5t22.5 44.5q18 31 21 79v13q0 39 -15 64q-11 20 -35 20h-10 q-32 -5 -62.5 -21t-56.5 -38q-62 -54 -62 -125q0 -11 1 -22z" />
<glyph unicode="h" horiz-adv-x="692" d="M49 154q0 211 25 452q2 22 2 46.5t-2 51.5q-2 54 -8 100q-3 23 -3 48q1 24 3 49q6 51 26 90q13 32 56 46q18 6 37 6q25 0 51 -11q13 -7 19 -23t6.5 -26.5t0.5 -34.5q-2 -19 -8.5 -75.5t-8.5 -80.5t-5 -73q-2 -29 -1 -53v-28q2 -32 7.5 -73t15.5 -78q19 32 39 60.5 t45.5 58t54 50t60.5 34.5q29 12 61 12h7q36 -2 73 -18q64 -265 79 -381q11 -88 12 -167q0 -48 -5 -93q-2 -24 -32 -41q-29 -17 -59 -17l-1 1q-32 0 -53 16q-37 46 -49 112q-8 47 -8 89q0 17 1 35q2 25 2 54q1 37 -3 78q-6 73 -35 126q-130 -130 -224 -332q-12 -20 -48 -34.5 t-62 -8.5q-5 2 -23.5 6t-31.5 10t-13 17z" />
<glyph unicode="i" horiz-adv-x="378" d="M76 273v31q0 47 4 104q6 76 6 110q0 54 1 83.5t10 73t26 77.5q20 38 67 52q18 5 37 6q28 0 56 -13q20 -9 36 -25t21 -36t-12 -38q-28 -39 -35 -85.5t-8 -95.5t-11 -79q-10 -26 -10 -65q0 -34 7 -78q9 -53 9 -91q0 -31 -6 -52q0 -7 -6 -17t-12 -10q-47 -13 -80 -13 q-66 0 -82 50q-16 52 -18 111zM128 1064q13 50 38 66q40 25 88 25h14q56 -4 82 -43q12 -22 11 -47q-1 -24 -11 -50q-22 -53 -55 -71q-23 -14 -51 -14q-13 0 -28 4q-45 10 -79 47q-14 21 -14 48q0 16 5 35z" />
<glyph unicode="j" horiz-adv-x="397" d="M-215 -156q-5 15 -5 29q0 23 14 43q23 32 65 43q30 8 47.5 -6t33 -44t25.5 -40q32 -16 49 -16q30 20 53 45.5t38 59t24.5 60t16.5 69.5t9.5 65.5t6.5 68.5q2 26 2 55q0 50 -6 110q-11 95 -25 168q-14 71 -14 160q0 3 1 6q0 92 25 167q8 24 45 34q16 4 33 4q21 0 43 -7 q39 -13 51 -48q1 -6 1 -14q0 -23 -9 -60t-9 -59q0 -8 1 -14q3 -55 11 -146.5t12.5 -155.5t5.5 -149q1 -10 1 -20q0 -74 -11 -132q-11 -66 -34.5 -136.5t-69.5 -130t-112 -107.5q-50 -36 -116 -36q-1 -1 -2 -1q-65 0 -122 36t-79 99zM82 1077q-24 46 -24 83q0 43 34 73 q42 39 100 39h3q60 -1 90 -47q25 -36 25 -84v-18q-6 -59 -48 -87q-39 -27 -79 -27q-11 0 -22 3q-51 9 -79 65z" />
<glyph unicode="k" horiz-adv-x="774" d="M22 1146q2 60 21 103q13 35 65 53q29 10 56 9q23 0 45 -6q7 -7 17 -23t10 -22q0 -84 -12 -286q-9 -150 -8 -251q0 -35 1 -64q4 -8 13 -10t21 0t13 2q16 12 49.5 39t53 41.5t52 32.5t57.5 23t57 0t63 -25q25 -13 25 -35t-16 -40t-36 -28q-13 -9 -94.5 -54.5t-118.5 -82.5 q147 -111 406 -350q12 -15 12 -30v-6q-3 -18 -13.5 -32t-25.5 -24q-27 -34 -73 -36q-4 0 -7 -1q-40 0 -59 27q-45 46 -95.5 89.5t-126 103.5t-102.5 83q-1 1 -3.5 2.5t-8.5 4.5t-9 1.5t-6 -6.5t1 -20q-1 -11 -2 -26q0 -40 10 -104q10 -68 11 -107q0 -12 -1 -21 q-5 -38 -41 -56q-29 -14 -58 -14h-15q-36 4 -44 25q-29 69 -47 151t-25 146q-6 53 -6 132v35q2 102 4.5 153.5t10.5 164.5q1 15 1 31q0 36 -4 81q-6 67 -14 117q-5 37 -5 79q0 15 1 31z" />
<glyph unicode="l" horiz-adv-x="405" d="M64 69q-4 16 -3 30q0 17 5 34q27 92 36.5 186.5t11 241t3.5 193.5v16q0 46 -9 108q-12 74 -22 130q-8 45 -8 97v25q2 66 28 115q19 40 66 58q23 9 44 9q23 0 45 -10q46 -21 46 -81q-1 -12 -5 -38q-6 -31 -5 -40q0 -47 2 -137.5t2 -164t-4 -136.5q-1 -22 -1 -49 q0 -65 6 -163q5 -79 6 -149q0 -51 -3 -96q-7 -107 -49 -197q-20 -45 -68 -51q-9 -1 -18 -1q-39 0 -74 21q-24 15 -32 49z" />
<glyph unicode="m" horiz-adv-x="1241" d="M38 707q6 48 26.5 88.5t59.5 54.5q20 7 44.5 7t54.5 -7q34 -10 47.5 -34t10.5 -55t-9 -63q-6 -28 -6 -58v-9q1 -34 17 -56q24 22 47.5 57t40 67.5t37.5 69t40.5 62t48.5 45.5t61.5 20t80.5 -15q31 -31 41 -39q8 -31 16 -113.5t25 -122.5q15 17 43.5 51t48 55.5t48.5 50.5 t55 45q24 16 56 28q27 11 57 11h9q34 -2 70 -16q23 -14 31 -38t8 -63.5t2 -51.5q18 -134 22 -245q1 -21 1 -43q0 -92 -14 -195q-17 -127 -60 -240q-10 -34 -43 -50q-28 -13 -62 -13h-13q-42 3 -77 24q-5 0 -9.5 11.5t-5 27.5t4.5 31q61 164 61 367q0 115 -20 243q0 24 -27 6 q-17 -13 -24 -27q-105 -172 -193 -415q-16 -32 -56 -56q-39 -24 -83 -24h-4q-46 1 -70 39q-20 41 -20 98.5t11 107.5q12 50 14 111v15q0 52 -15 94q-35 -60 -99.5 -206.5t-113.5 -219.5q-20 -29 -60 -40q-20 -6 -39 -5.5t-37 5.5q-36 11 -48 40q-25 63 -29 154q-2 36 -2 70 q0 51 4 97q2 28 2 58q0 51 -6 108q-3 28 -3 54q-1 24 2 47z" />
<glyph unicode="n" horiz-adv-x="737" d="M80 685q2 55 18 97q12 29 48 40q16 5 31 5q21 0 39 -8q34 -14 44 -47q3 -11 3 -26q0 -24 -8 -57q-13 -54 -13 -73q4 -4 11 -17q5 -9 6 -9t1 2q4 6 20 33.5t21 35.5t20.5 31.5t23 31.5t24 25.5t27.5 23t29 15t34 10.5t36 0t42 -7q27 -44 46.5 -96.5t30.5 -95.5t18 -108 t9 -102t4.5 -110.5t3.5 -102.5q6 -16 6 -35q-1 -12 -3 -26q-6 -36 -29 -43q-19 -5 -29 -7.5t-28 -6.5q-16 -3 -28 -3l-2 1q-12 0 -24.5 2.5t-19.5 10.5t-9 21q-12 78 -18 245.5t-25 256.5q-44 -49 -75 -119.5t-61 -153t-62 -135.5q-24 -40 -74 -42q-2 0 -4 -1q-48 0 -66 43 q-13 35 -15 77q-1 13 -1 27q0 34 4 74q4 58 4 82q0 34 -6 110q-4 57 -4 102v29z" />
<glyph unicode="o" horiz-adv-x="577" d="M63 678q14 50 41.5 94.5t54.5 80t36 56.5q23 53 73 66q19 5 39 5q32 0 65 -14q53 -22 93 -65q69 -79 100 -201q12 -45 12 -90q0 -161 -153 -323q-33 -35 -100 -39q-11 -1 -20 0q-53 0 -87 20q-103 60 -145 176q-24 64 -24 130q0 52 15 104zM196 609q-6 -22 -6 -41 q0 -65 70 -90q11 -4 23 -7q18 -4 33 -4q46 1 70 35q22 32 22 76q0 20 -5 44q-15 74 -69 134q-6 6 -14 6q-19 0 -51 -31q-55 -54 -73 -122z" />
<glyph unicode="p" horiz-adv-x="704" d="M26 74v31q0 66 6 133q6 84 13.5 151.5t20 162t18.5 153.5q2 12 -13 39.5t-5 43.5q23 19 26 55t7 70.5t32 53.5q43 31 87 33h3q41 0 70 -33q16 -16 18 -58t10 -45q47 -5 89 -13t90 -21.5t85 -34t67.5 -48t45.5 -67.5q10 -30 10 -64q0 -12 -1 -24q-6 -56 -27 -99 t-53.5 -70.5t-70 -47t-85 -32.5t-89 -22.5t-90 -21t-81.5 -23.5q-18 -94 -20 -162v-21q0 -57 9 -107q11 -58 40 -160q1 -6 19.5 -31.5t25.5 -38.5q7 -14 7 -25q0 -29 -48 -39q-24 -4 -46 -4q-36 0 -65 13q-25 9 -42 28.5t-26 50t-13.5 55.5t-8.5 62q-1 13 -2 19 q-11 78 -13 158zM242 558q-7 -35 -7 -59q0 -43 21 -55q24 -9 54 -10h4q28 0 59 12q33 14 61.5 34t49.5 53.5t26 72.5q2 9 2 17q0 56 -72 71q-38 17 -76 18q-3 1 -6 1q-35 0 -57 -19q-41 -41 -59 -136z" />
<glyph unicode="q" horiz-adv-x="786" d="M37 666q20 89 79.5 156t149.5 102q46 18 91 22q10 1 20 1q35 0 71 -11q46 -14 76 -49q18 31 57 41q19 6 38 6t36 -6q35 -10 45 -33q20 -45 22 -104v-14q0 -52 -10 -107q-11 -62 -27.5 -132t-30.5 -146.5t-20 -153.5q-3 -28 -3 -57q0 -52 7 -107q12 -88 44 -170 q12 -32 42.5 -42t59 -1t37.5 28q3 6 8.5 18.5t10 22.5t11 24t13.5 24t15.5 21t17.5 18t19 11.5t22 4t25 -5.5q23 -10 38 -20.5t21 -23.5q8 -17 8 -28q0 -9 -5 -23q-6 -17 -11.5 -29.5t-17.5 -36.5t-19 -40q-21 -50 -63.5 -84.5t-93.5 -48.5q-44 -12 -91 -12q-9 0 -17 1 q-56 2 -104 23q-61 27 -101 87t-46 126q0 27 5 96q2 44 2 79v36q-3 47 -17 84q-5 16 -23 17.5t-39.5 -6.5t-45 -12t-40.5 1q-22 14 -70 23t-67 24q-11 13 -44.5 48.5t-51 59t-25.5 48.5q-29 65 -29 133q0 57 21 117zM212 606q-6 -30 -6 -58q0 -47 17 -90q27 -70 90 -106 q25 -16 53 -16q12 0 24 2q43 10 61 51q14 32 21.5 73t7.5 66q1 8 1 19q0 23 -1 59q-1 55 -1 68q0 44 -43 80q-36 31 -79 31q-8 0 -17 -1q-12 -4 -20.5 -9.5t-20 -19t-14.5 -16.5q-56 -56 -73 -133z" />
<glyph unicode="r" horiz-adv-x="661" d="M35 866q5 40 37 68q34 32 70 32h8q40 -4 70 -30q31 -26 47 -72q11 -32 12 -65q0 -14 -3 -29q33 5 64.5 27.5t52.5 47t50 48.5q29 25 57 33q13 4 30 3q20 0 45 -5q22 -9 32 -13t27 -14.5t22 -20.5q4 -8 4 -19q0 -18 -13 -36q-40 -56 -143 -141t-146 -148 q-16 -22 -18.5 -73.5t-11.5 -69.5q-17 -21 -13 -59t33 -74q26 -31 26 -81q0 -9 -2 -21q-6 -64 -44 -103q-30 -45 -87 -47h-5q-53 0 -82 37q-21 14 -27 35t-4 57q2 33 2 70q0 167 -33 432q-4 30 -21 77.5t-29 81.5q-8 24 -8 50q0 10 1 22z" />
<glyph unicode="s" horiz-adv-x="706" d="M40 686q6 38 28 70t56 63.5t75 53.5t83 37q42 16 80 16q2 0 4 -1q36 0 64 -10q21 -9 60.5 -23.5t65 -25.5t56 -27.5t52.5 -38.5t36 -50q5 -11 5 -24q0 -15 -6 -34q-12 -36 -31 -47q-18 -11 -40 -11q-13 0 -27 4q-39 10 -75.5 35.5t-82 48t-87.5 28.5q-7 1 -15 1 q-36 0 -77 -24q-28 -21 -16 -52t41 -59t51 -36q106 -38 181.5 -78t142.5 -101q28 -27 34 -71q2 -14 1 -28q1 -30 -7 -59q-12 -43 -35 -81q-40 -66 -123 -114q-82 -46 -173 -60q-24 -4 -48 -4q-67 0 -131 28q-88 38 -131 127q-8 15 -8 30q1 25 23 51q36 41 81 44q21 2 36 -17 t29.5 -43.5t29.5 -31.5q35 -18 81.5 -18t86.5 15t68 47.5t28 74.5q0 21 -31 49t-63 41q-27 12 -82 33.5t-87.5 36.5t-73.5 38.5t-70 54.5t-48 70q-13 26 -13 53q1 10 2 19z" />
<glyph unicode="t" horiz-adv-x="813" d="M14 528q-2 6 -2 12q0 16 12 35q17 27 42 43q30 15 82 26t93 24t62 39q17 22 24 55.5t9.5 83.5t5.5 69l15 97.5t16 111.5q5 46 43 66q29 16 65 16q10 0 21 -1q48 -6 88 -31q9 -9 12.5 -28t-2.5 -42q-80 -175 -80 -418q17 2 59 7q81 10 131 10q39 0 60 -6q44 -13 44 -51 q0 -13 -5 -28q-6 -18 -19 -32.5t-28.5 -23.5t-40.5 -15t-44 -9.5t-50.5 -5t-48.5 -1.5t-50 0.5t-43 0.5q-3 -19 -3 -58q0 -106 20 -360q24 -313 24 -389v-14q-2 -30 -21.5 -49.5t-49.5 -19.5q-37 0 -55.5 13.5t-30.5 51.5q-17 47 -27.5 230.5t-24 363t-38.5 225.5 q-43 -34 -95 -52q-33 -12 -66 -12q-18 0 -36 4q-50 10 -68 62z" />
<glyph unicode="u" horiz-adv-x="751" d="M51 620q-2 24 -2 47q0 34 4 66q1 11 1.5 52.5t2.5 59t14 43.5t33 40q38 14 77 14t68.5 -21t28.5 -55q0 -44 -4 -126t-4 -149t8 -126q3 -11 7.5 -30.5t8 -37t8.5 -39t10 -38.5t11.5 -34.5t14.5 -29t17.5 -19t21 -6.5t24.5 9q131 92 163 270q8 46 9 89q0 127 -69 237 q-18 28 -28.5 56.5t-8 57t26.5 39.5q30 12 57 12q23 0 43 -8q46 -17 79.5 -58.5t54 -93t22.5 -98.5q2 -32 2 -63q0 -66 -8 -130q-12 -96 -43 -186.5t-89.5 -161.5t-138.5 -106q-64 -27 -119.5 -27t-96.5 24t-76 65t-57 95.5t-39.5 115.5t-23.5 126t-10 125z" />
<glyph unicode="v" horiz-adv-x="880" d="M25 807q-6 17 -6 32q0 33 28 55q39 31 91 30h7q57 -2 78 -33q38 -48 67.5 -125.5t60 -158t69.5 -132.5q37 62 70.5 143t51.5 136t51 163.5t46 149.5q14 43 58 57q21 7 44 7q24 1 50 -7q50 -14 88 -47q2 -5 2 -12q-1 -11 -5 -27q-8 -26 -8 -32q-5 -8 -26.5 -29.5 t-26.5 -34.5q-111 -402 -291 -747q-20 -35 -71 -51q-16 -5 -31 -5q-31 0 -53 23q-45 41 -85 102t-59.5 103.5t-53.5 122.5q-7 17 -11 26q-90 167 -135 291z" />
<glyph unicode="w" horiz-adv-x="1247" d="M38 517q-2 47 -2 88t2 77q4 71 13 170q5 44 39 67q28 19 61 19q7 0 15 -1q40 -5 63 -34q31 -39 40 -95q5 -30 5 -59q0 -25 -4 -49q-8 -52 -9 -114q0 -10 -1 -20q0 -52 10 -97q5 -19 14.5 -75t22 -92t35.5 -66q12 -15 25 -15q21 0 45 37q22 33 65 129t86 139q41 40 73 43 h5q30 0 70 -34q39 -36 71 -101t64.5 -123.5t77.5 -87.5q13 -8 29 8t28 39q35 60 47 132q9 55 10 101q0 15 -1 29q-3 41 -3 89v37q2 69 17 118q8 26 37 37t60 6.5t58 -30t31 -66.5q12 -98 11 -177v-7q0 -82 -15 -171t-61 -161.5t-121 -122.5q-75 -48 -150 -48q-54 0 -106 25 q-34 16 -68 61.5t-57.5 84.5t-36.5 41q-12 2 -38 -40t-63.5 -96t-72.5 -73q-42 -25 -93 -35q-26 -5 -51 -5q-25 -1 -49 5q-50 10 -76 45q-51 67 -84 147t-48.5 153.5t-19.5 167.5z" />
<glyph unicode="x" horiz-adv-x="964" d="M26 138q10 38 32.5 67t54 62.5t60 61.5t49.5 63.5t22 70.5v9q0 38 -14 78q-16 46 -40.5 86t-48.5 81.5t-41.5 89t-17.5 92.5q-10 26 23.5 45t74.5 19q64 0 105.5 -26t62.5 -70t35 -90t35 -96.5t51 -80.5q34 18 82 60t87 76t82 60q34 20 67 20q9 0 17 -1q42 -7 77 -53 q27 -31 27 -60q0 -6 -2 -12q-6 -34 -33.5 -57.5t-70 -51t-83 -51.5t-73 -58.5t-40.5 -72.5q-6 -30 4 -61t35.5 -59.5t46 -47.5t51.5 -43q37 -38 99.5 -112.5t99.5 -112.5q24 -24 24 -46q0 -26 -33 -49q-49 -34 -115 -35q-23 0 -38 5q-48 17 -89.5 59t-72.5 90t-62.5 95 t-73 83.5t-89.5 47.5q-23 4 -45 -21.5t-48 -68t-44 -60.5q-38 -57 -117.5 -57t-107.5 57q-9 23 -9 46q0 14 4 29z" />
<glyph unicode="y" horiz-adv-x="708" d="M-96 -250q-34 67 -34 114q0 53 44 79q17 10 34 10q22 0 46 -15q43 -29 51 -75q36 28 59 51.5t37 41t23 45t13 45t11.5 61t14.5 75.5q4 17 4 35q0 32 -12 66q-18 53 -44 108t-30 94q-5 57 -20.5 163t-20.5 163q-1 9 -4.5 37t-4 42t3.5 32.5t15 29.5q32 47 94 49h5 q58 0 83 -49q21 -45 25 -108q2 -32 2 -61t-2 -55q-1 -15 -1 -31q0 -41 7 -89q3 -9 7 -12t9 -0.5t8.5 5.5t9.5 9.5t7 7.5q12 27 34 79t37 84t38 72t51 69.5t63 50.5q19 11 48.5 12.5t54.5 -7.5t36 -30q3 -8 3 -18q0 -17 -11 -39q-25 -48 -81.5 -147t-89 -160t-64 -153 t-37.5 -177q-9 -105 -74.5 -256t-142.5 -248q-36 -44 -99 -62q-33 -10 -66 -10q-28 0 -56 8q-60 16 -84 64z" />
<glyph unicode="z" horiz-adv-x="968" d="M41 791q-4 17 -4 33q0 42 31 75q37 38 80 38q8 0 16 -1q64 -11 148.5 -17.5t141.5 -12.5t123.5 -21t128.5 -50t123 -92q7 -19 2.5 -45.5t-14.5 -42.5q-48 -49 -138.5 -126t-159 -146.5t-118.5 -149.5q123 -28 244.5 -30t249.5 -29q46 -10 65 -40q8 -12 8 -25 q0 -21 -18 -46q-30 -55 -98 -69q-24 -5 -48 -4q-44 0 -87 16q-71 24 -124 28q-18 1 -33 1q-30 0 -49 -5q-27 -8 -76 -8h-7q-54 0 -123 19q-43 11 -76.5 22.5t-71 29.5t-52.5 42t-1 51q33 66 90.5 135t112 119.5t122.5 117t110 118.5q-36 41 -59 51q-24 11 -62 5 q-25 -4 -45 -4q-11 0 -21 1q-12 2 -33 2q-31 0 -83 -4q-25 -2 -45 -2q-48 0 -70 10q-20 0 -46.5 16t-33.5 40z" />
<glyph unicode="{" horiz-adv-x="911" d="M6 249.5q-2 39.5 8 71.5t30 68t41 65t45.5 67t39.5 69q5 10 -7.5 19.5t-48 25.5t-44.5 20q-68 47 -56 101q8 12 29 23.5t35 26t14 38.5q41 0 68.5 10.5t19.5 34.5q-3 28 -22 63.5t-36 60.5t-26 59t8 58q30 56 72 94t95.5 56t104 26t117.5 2.5t114.5 -12.5t115.5 -20 q16 -4 41.5 0.5t48.5 3.5t43 -16q26 -25 41.5 -50t14 -54.5t-32.5 -49.5q-49 -25 -107 -26t-111 11t-106 22.5t-108 5.5t-101 -36q6 -41 37.5 -86.5t63 -81.5t55 -75.5t14.5 -84t-59 -91.5q-6 -11 -18 -84t-38 -105q-9 -7 -23.5 -18.5t-25.5 -20t-25.5 -21t-24.5 -22 t-22.5 -23.5t-18 -24.5t-12 -25.5t-5 -27.5t3.5 -28.5q12 -44 44 -68t72.5 -28t89 -3.5t94 4.5t87.5 -3q24 0 -3 -49q-26 -46 -52 -62q-152 -100 -387 -34q-91 27 -166 145q-19 40 -21 79.5z" />
<glyph unicode="|" horiz-adv-x="374" d="M55 709q0 32 1 64t4 68t5.5 62t7.5 68.5t7.5 62t9 68t8.5 63.5q0 48 35 88t86 54q31 9 63.5 -0.5t54.5 -29.5t32.5 -45t1.5 -44q-86 -195 -86 -436q0 -75 12 -176.5t23 -176.5t9.5 -166.5t-24.5 -166.5q-4 -21 -35 -39.5t-67 -25t-68 11.5t-37 63q-3 33 -13.5 150.5 t-15 172.5t-9.5 146t-5 164z" />
<glyph unicode="}" horiz-adv-x="643" d="M39 733q-20 33 1.5 67t57.5 52q57 40 179 83t147 54q-27 39 -77 61.5t-97.5 29.5t-99 28t-80.5 57q-11 14 -12 29t2 24t14 29t14 27q7 13 15.5 21.5t20.5 11t20.5 3.5t24 -3t22 -6t24 -9t21.5 -8q15 -6 63 -23.5t68.5 -25.5t61.5 -26.5t66 -33.5t57 -38.5t58 -49.5 q44 -48 29 -108q-13 -51 -55.5 -85t-89 -48.5t-106 -36.5t-93.5 -47q20 -15 51 -25t57.5 -13t55 -10t43 -17t21 -33t-10.5 -58q-9 -22 -31 -39.5t-55.5 -36.5t-50.5 -32q5 -4 30 -21.5t33.5 -23.5t31 -24t31 -27t25.5 -28t22 -31.5t12.5 -32.5t5.5 -37t-7.5 -38t-17.5 -42 q-39 -69 -105 -121t-145.5 -68.5t-153.5 31.5q-7 15 -7 39.5t7 38.5q19 26 59 41.5t72.5 21.5t53.5 26.5t12 57.5q-8 32 -42 63t-70 52t-65.5 53.5t-29.5 69.5q0 13 23 47.5t18 50.5q-10 26 -62.5 70.5t-66.5 66.5z" />
<glyph unicode="~" horiz-adv-x="788" d="M38.5 983q-1.5 31 12.5 51q14 21 29.5 46.5t22.5 35t22 27t41 43.5q39 39 65.5 60.5t64 41t76.5 16.5t81 -28q25 -16 35.5 -46.5t17.5 -66.5t22 -57q20 -28 35.5 -33t30 9t29.5 33.5t41.5 45t56.5 39.5q37 13 56.5 -14t4.5 -56q-82 -124 -134 -164t-146 -44 q-40 -2 -74 24.5t-47 71.5q-13 43 -28 64.5t-34 15.5q-38 -12 -64 -36.5t-37 -46.5t-31 -43.5t-46 -27.5t-82 2q-19 6 -20.5 37z" />
<glyph unicode="&#xa1;" horiz-adv-x="473" d="M35 66q14 157 88.5 455t93.5 431q0 59 107 17q26 -10 39 -26.5t14.5 -39t-1 -42t-8.5 -48.5t-8 -45q-30 -226 -61.5 -388t-87.5 -325q-9 -26 -31.5 -41t-47.5 -15.5t-48 6t-37 23.5t-12 38zM241.5 1194.5q-4.5 24.5 5 51.5t38.5 44q32 19 60.5 19t48 -14t35.5 -39.5 t25.5 -52.5t16.5 -58q0 -62 -60.5 -91t-115.5 9q-15 10 -41 10q3 25 -2.5 61t-10 60.5z" />
<glyph unicode="&#xa5;" horiz-adv-x="739" d="M23 1223q-3 24 14.5 45.5t43.5 31.5t53.5 12t43.5 -14q39 -34 66 -102.5t40.5 -135.5t38 -141t58.5 -114q27 36 50.5 105t38.5 131t45 125t71 94q36 22 74.5 23.5t63.5 -21.5t11 -58q-137 -349 -223 -532q8 0 24 1t23 1q33 5 58 -5.5t34 -33.5q18 -39 -12.5 -63 t-79.5 -33q-8 -2 -25.5 -7.5t-25.5 -7.5q3 -10 20 -35q18 -18 -8 -83q-10 -9 -51 -23.5t-51 -40.5l-6 -25q17 -2 42 6t44 16.5t44.5 9.5t43.5 -15q11 -3 18.5 4t12 13.5t10.5 2.5q35 -30 24.5 -61t-51.5 -47q-89 -64 -219 -80q-17 -83 -62 -254q-7 -26 -43.5 -40.5 t-87.5 3.5q-18 8 -28 20.5t-11.5 32.5t-1 32t3.5 36q1 5 1 8q9 61 47 176q-95 26 -142 96q-19 40 22 74.5t97 42.5q40 0 82 -10q17 74 12 121q-80 3 -159 24q-33 9 -59 37.5t-7 50.5q49 67 180 70q-21 56 -74 168.5t-86 201.5t-42 167z" />
<glyph unicode="&#xa7;" horiz-adv-x="1177" d="M55 655q62 77 252 70q98 204 307 256q93 16 153.5 10.5t143.5 -30.5q37 -11 64.5 -46t5.5 -73q-9 -18 -25 -29t-29.5 -14.5t-37 -8t-37.5 -8.5q-40 -13 -116.5 4.5t-106.5 6.5q-68 -23 -115 -80q71 -3 123 2q35 3 63.5 -7.5t40.5 -33.5q14 -27 -1.5 -48.5t-42 -32.5 t-60.5 -18q-122 -24 -184 -28q-6 -79 18 -156q0 -8 4 -16q19 -1 46.5 7.5t49 16.5t48 7.5t47.5 -15.5q17 -4 28 10.5t17 10.5q41 -30 29.5 -61.5t-58.5 -47.5q-46 -30 -119 -53q64 -54 145 -70.5t164 10.5q16 5 39 19t42 27t43 24.5t41 12t36 -10.5q35 -28 54.5 -57 t16.5 -60.5t-36 -54.5q-200 -145 -512 -49q-152 49 -227 109q-43 37 -66 71q-161 17 -233 113q-20 40 26 75t109 42q27 0 39 -2q0 37 6 77q0 3 1 10t1 11q-62 6 -123 18q-38 10 -66.5 39.5t-7.5 50.5z" />
<glyph unicode="&#xa8;" horiz-adv-x="663" d="M55 1188q0 50 37 84q36 36 86.5 38.5t91 -22.5t56.5 -63q16 -32 11 -70.5t-20.5 -71t-48.5 -49.5t-73 -6q-4 1 -17 4.5t-21.5 6t-19 7.5t-16.5 11q-66 63 -66 131zM407 1139.5q0 27.5 8.5 55.5t29.5 48.5t46.5 33t60.5 10.5t71 -21q35 -20 39.5 -64.5t-13.5 -77.5 q-22 -54 -80.5 -85t-105.5 1q-27 18 -41.5 45t-14.5 54.5z" />
<glyph unicode="&#xad;" d="M47 543q-7 50 28 87.5t87 37.5q53 0 126.5 -5.5t128.5 -11t126 -5t133 10.5q14 7 31.5 1.5t25.5 -19.5q5 -12 2.5 -24t-3 -20.5t-7.5 -17t-11.5 -14t-14 -11.5t-15.5 -9.5t-17 -8t-17.5 -7t-16.5 -6t-15 -5.5q-259 -74 -534 0q-16 4 -25.5 10.5t-10.5 11.5z" />
<glyph unicode="&#xb4;" horiz-adv-x="323" d="M50.5 1042q-1.5 18 3.5 31.5t12 23t20 29t23 41.5q19 36 30.5 55t31 43.5t42 35t49.5 10.5q20 0 43.5 -25t16.5 -43q-30 -82 -56 -118.5t-96 -100.5q-16 -15 -36.5 -27t-43.5 -16.5t-31 16.5q-7 27 -8.5 45z" />
<glyph unicode="&#xbf;" horiz-adv-x="675" d="M20 270q14 53 47.5 97.5t77.5 78.5t88.5 64.5t90.5 69t73 77.5q22 30 15 76t-25 84.5t-22 83.5t24 74q13 15 49.5 15t59.5 -15q85 -58 121 -162.5t8 -196.5q-15 -46 -52.5 -80t-84 -56.5t-94 -45t-91 -59.5t-65.5 -86q65 -35 203.5 -79t203.5 -79q35 -16 26.5 -61 t-46.5 -68q-38 -8 -52.5 -10.5t-44.5 -1.5t-53 12q-35 15 -130.5 48t-162 64t-125.5 76q-18 18 -32 42.5t-7 37.5zM388.5 1163q-17.5 33 0.5 70q20 45 80 61t98 -12q43 -31 43.5 -69.5t-43.5 -69.5q-11 -7 -22 -11.5t-25 -6t-22.5 -2t-26 0t-22.5 0.5q-43 6 -60.5 39z" />
<glyph unicode="&#xc0;" horiz-adv-x="823" d="M30.5 96.5q0.5 31.5 11.5 75.5t22 75t25.5 75t21.5 77q64 289 137 508q17 48 31 125.5t31 138.5t50 105q9 15 38.5 26t60 8t39.5 -24q49 -104 83 -214t75.5 -292.5t54.5 -232.5q0 -12 11.5 -19t28 -15.5t23.5 -20.5q8 -13 8 -30.5t-8 -25.5q-23 -45 -17 -99t23.5 -93.5 t32 -92t8.5 -94.5q-4 -27 -34 -43t-66.5 -12t-56.5 29q-23 31 -34 79t-14 87.5t-20 79t-51 59.5q-58 32 -135.5 23t-133.5 -52q-19 -14 -32 -43.5t-19.5 -62t-15.5 -69t-19 -64t-30 -48t-48.5 -20t-74.5 19.5q-7 45 -6.5 76.5zM301 1653.5q17 30.5 55 48.5t72 14 q44 -5 68 -44t41 -103q5 -20 16 -57q29 -107 25 -137q-5 -37 -48 -42q-23 -3 -42.5 9t-29 24t-26.5 39q-24 34 -43.5 60t-36.5 50t-47 70q-21 38 -4 68.5zM304.5 527.5q2.5 -17.5 17.5 -25.5q26 -14 67.5 -19.5t80 5.5t46.5 40q9 31 9 66.5t-3 60t-18.5 68t-22 59t-30 66.5 t-27.5 59q-30 -37 -43 -80.5t-21 -103.5q-3 -22 -13.5 -52t-20.5 -54.5t-17 -48t-4.5 -41z" />
<glyph unicode="&#xc1;" horiz-adv-x="823" d="M30.5 96.5q0.5 31.5 11.5 75.5t22 75t25.5 75t21.5 77q64 289 137 508q17 48 31 125.5t31 138.5t50 105q9 15 38.5 26t60 8t39.5 -24q49 -104 83 -214t75.5 -292.5t54.5 -232.5q0 -12 11.5 -19t28 -15.5t23.5 -20.5q8 -13 8 -30.5t-8 -25.5q-23 -45 -17 -99t23.5 -93.5 t32 -92t8.5 -94.5q-4 -27 -34 -43t-66.5 -12t-56.5 29q-23 31 -34 79t-14 87.5t-20 79t-51 59.5q-58 32 -135.5 23t-133.5 -52q-19 -14 -32 -43.5t-19.5 -62t-15.5 -69t-19 -64t-30 -48t-48.5 -20t-74.5 19.5q-7 45 -6.5 76.5zM304.5 527.5q2.5 -17.5 17.5 -25.5 q26 -14 67.5 -19.5t80 5.5t46.5 40q9 31 9 66.5t-3 60t-18.5 68t-22 59t-30 66.5t-27.5 59q-30 -37 -43 -80.5t-21 -103.5q-3 -22 -13.5 -52t-20.5 -54.5t-17 -48t-4.5 -41zM411.5 1431q-1.5 18 3.5 31.5t11.5 23t19.5 29t23 41.5q19 35 31 55t31.5 43.5t42 34.5t49.5 11 q20 0 43 -25t16 -43q-30 -82 -56 -118.5t-96 -100.5q-16 -15 -36.5 -27t-43 -16.5t-30.5 16.5q-7 27 -8.5 45z" />
<glyph unicode="&#xc2;" horiz-adv-x="823" d="M30.5 96.5q0.5 31.5 11.5 75.5t22 75t25.5 75t21.5 77q64 289 137 508q17 48 31 125.5t31 138.5t50 105q9 15 38.5 26t60 8t39.5 -24q49 -104 83 -214t75.5 -292.5t54.5 -232.5q0 -12 11.5 -19t28 -15.5t23.5 -20.5q8 -13 8 -30.5t-8 -25.5q-23 -45 -17 -99t23.5 -93.5 t32 -92t8.5 -94.5q-4 -27 -34 -43t-66.5 -12t-56.5 29q-23 31 -34 79t-14 87.5t-20 79t-51 59.5q-58 32 -135.5 23t-133.5 -52q-19 -14 -32 -43.5t-19.5 -62t-15.5 -69t-19 -64t-30 -48t-48.5 -20t-74.5 19.5q-7 45 -6.5 76.5zM113 1241q29 40 80.5 110.5t78 108t63 94.5 t66.5 111q0 3 6 3t17.5 -1.5t17.5 -1.5q29 0 41 -6q20 -26 115.5 -243t97.5 -234q-7 0 -19 -16t-22 -13q-9 5 -35 8t-47 6.5t-24 10.5q-55 138 -125 231q-17 -33 -32.5 -57.5t-36 -49t-32 -37t-43.5 -44t-47 -47.5q-22 -17 -54.5 -15.5t-59.5 12.5q-42 18 -6 70z M304.5 527.5q2.5 -17.5 17.5 -25.5q26 -14 67.5 -19.5t80 5.5t46.5 40q9 31 9 66.5t-3 60t-18.5 68t-22 59t-30 66.5t-27.5 59q-30 -37 -43 -80.5t-21 -103.5q-3 -22 -13.5 -52t-20.5 -54.5t-17 -48t-4.5 -41z" />
<glyph unicode="&#xc3;" horiz-adv-x="823" d="M30.5 96.5q0.5 31.5 11.5 75.5t22 75t25.5 75t21.5 77q64 289 137 508q17 48 31 125.5t31 138.5t50 105q9 15 38.5 26t60 8t39.5 -24q49 -104 83 -214t75.5 -292.5t54.5 -232.5q0 -12 11.5 -19t28 -15.5t23.5 -20.5q8 -13 8 -30.5t-8 -25.5q-23 -45 -17 -99t23.5 -93.5 t32 -92t8.5 -94.5q-4 -27 -34 -43t-66.5 -12t-56.5 29q-23 31 -34 79t-14 87.5t-20 79t-51 59.5q-58 32 -135.5 23t-133.5 -52q-19 -14 -32 -43.5t-19.5 -62t-15.5 -69t-19 -64t-30 -48t-48.5 -20t-74.5 19.5q-7 45 -6.5 76.5zM126.5 1331q-1.5 31 12.5 51q14 21 29.5 46.5 t22.5 35t22 27t41 43.5q39 39 65.5 60.5t64 41t76.5 16.5t81 -28q25 -16 35.5 -46.5t17.5 -66.5t22 -57q20 -28 35.5 -33t30 9t29.5 33.5t41.5 45t56.5 39.5q37 13 56.5 -13.5t4.5 -55.5q-82 -124 -134 -164.5t-146 -44.5q-40 -2 -74 24.5t-47 71.5q-13 44 -27.5 65 t-33.5 15q-38 -12 -64.5 -36.5t-37 -46.5t-31 -43.5t-46.5 -27.5t-82 2q-19 6 -20.5 37zM304.5 527.5q2.5 -17.5 17.5 -25.5q26 -14 67.5 -19.5t80 5.5t46.5 40q9 31 9 66.5t-3 60t-18.5 68t-22 59t-30 66.5t-27.5 59q-30 -37 -43 -80.5t-21 -103.5q-3 -22 -13.5 -52 t-20.5 -54.5t-17 -48t-4.5 -41z" />
<glyph unicode="&#xc4;" horiz-adv-x="823" d="M30.5 96.5q0.5 31.5 11.5 75.5t22 75t25.5 75t21.5 77q64 289 137 508q17 48 31 125.5t31 138.5t50 105q9 15 38.5 26t60 8t39.5 -24q49 -104 83 -214t75.5 -292.5t54.5 -232.5q0 -12 11.5 -19t28 -15.5t23.5 -20.5q8 -13 8 -30.5t-8 -25.5q-23 -45 -17 -99t23.5 -93.5 t32 -92t8.5 -94.5q-4 -27 -34 -43t-66.5 -12t-56.5 29q-23 31 -34 79t-14 87.5t-20 79t-51 59.5q-58 32 -135.5 23t-133.5 -52q-19 -14 -32 -43.5t-19.5 -62t-15.5 -69t-19 -64t-30 -48t-48.5 -20t-74.5 19.5q-7 45 -6.5 76.5zM127 1507q0 50 37 84q36 36 86 38.5 t90.5 -22.5t56.5 -63q16 -32 11 -70.5t-20.5 -70.5t-48.5 -49t-73 -6q-5 1 -17 4t-20.5 5.5t-19 7.5t-16.5 11q-66 63 -66 131zM304.5 527.5q2.5 -17.5 17.5 -25.5q26 -14 67.5 -19.5t80 5.5t46.5 40q9 31 9 66.5t-3 60t-18.5 68t-22 59t-30 66.5t-27.5 59 q-30 -37 -43 -80.5t-21 -103.5q-3 -22 -13.5 -52t-20.5 -54.5t-17 -48t-4.5 -41zM478.5 1459.5q-0.5 27.5 8.5 55t29.5 48.5t46 33t60.5 10t71 -21q35 -20 40 -63.5t-13 -77.5q-22 -54 -80.5 -85t-105.5 1q-27 18 -41.5 45t-15 54.5z" />
<glyph unicode="&#xc5;" horiz-adv-x="823" d="M30.5 96.5q0.5 31.5 11.5 75.5t22 75t25.5 75t21.5 77q64 289 137 508q17 48 31 125.5t31 138.5t50 105q1 2 9 10q-54 40 -64 109q-7 62 39 113.5t109 62.5q52 9 96 -45q27 -34 27 -76.5t-18.5 -78t-49.5 -66.5q-11 -11 -14 -13q4 -4 4 -6q49 -104 83 -214t75.5 -292.5 t54.5 -232.5q0 -12 11.5 -19t28 -15.5t23.5 -20.5q8 -13 8 -30.5t-8 -25.5q-23 -45 -17 -99t23.5 -93.5t32 -92t8.5 -94.5q-4 -27 -34 -43t-66.5 -12t-56.5 29q-23 31 -34 79t-14 87.5t-20 79t-51 59.5q-58 32 -135.5 23t-133.5 -52q-19 -14 -32 -43.5t-19.5 -62t-15.5 -69 t-19 -64t-30 -48t-48.5 -20t-74.5 19.5q-7 45 -6.5 76.5zM304.5 527.5q2.5 -17.5 17.5 -25.5q26 -14 67.5 -19.5t80 5.5t46.5 40q9 31 9 66.5t-3 60t-18.5 68t-22 59t-30 66.5t-27.5 59q-30 -37 -43 -80.5t-21 -103.5q-3 -22 -13.5 -52t-20.5 -54.5t-17 -48t-4.5 -41z M401 1425q-3 -17 5.5 -33t23.5 -22q16 -11 33 14q34 42 16 72q-14 19 -26 19q-20 0 -35 -15.5t-17 -34.5z" />
<glyph unicode="&#xc7;" horiz-adv-x="921" d="M25 526q12 81 39 152t70 133t109 106.5t148 63.5q92 16 152 10.5t145 -30.5q37 -11 63.5 -46t4.5 -73q-9 -18 -25 -29t-29.5 -14.5t-36.5 -8t-36 -8.5q-40 -13 -116.5 4.5t-106.5 6.5q-117 -41 -158 -158.5t-2 -243.5q38 -125 157.5 -184t243.5 -17q16 5 39 19t42 27 t43 24.5t41 12t36 -10.5q35 -28 54.5 -57t16.5 -60.5t-36 -54.5q-130 -96 -308 -86q-2 -57 -14 -119.5t-33 -83.5q-36 -36 -117.5 -45t-136.5 21q-95 58 -28 125q17 17 50.5 11.5t59 -14.5t50.5 9q10 8 11.5 27t-1.5 49t-2 45q-7 2 -21.5 6t-21.5 6q-154 49 -228 109 q-150 125 -118 376z" />
<glyph unicode="&#xc8;" d="M30.5 601.5q-2.5 16.5 8.5 27.5q0 4 5 9t13 10.5t11 8.5q6 14 9 31.5t3 30t-1 33t-1 28.5q0 31 -12 93t-12 109.5t24 82.5q56 82 156 118.5t208.5 19t192.5 -82.5q28 -22 5.5 -59.5t-71.5 -44.5q-34 -4 -86 9t-85.5 20t-84.5 -9q-36 -16 -47.5 -52.5t-5.5 -76.5t6.5 -85 t-10.5 -79q33 -18 78.5 -21t86 0.5t80.5 3t72.5 -21t51.5 -65.5q-26 -45 -74.5 -62t-94.5 -14t-96 -4.5t-75 -34.5q-18 -19 -27 -46.5t-9.5 -64.5t1.5 -65t8 -74.5t8 -68.5q68 -13 138.5 5.5t155.5 56t132 50.5l6 3t7.5 -2.5t8.5 -5.5t8 -7t7 -6q13 -50 -5 -89t-60 -54 q-38 -13 -108.5 -41.5t-113.5 -44t-105 -28t-118 -9.5q-14 3 -48 3.5t-52.5 7.5t-22.5 28q-20 64 -19.5 151.5t5.5 150.5t-14 150q-2 9 -12 24t-16.5 26t-9 27.5zM148 1555.5q17 30.5 54.5 48.5t71.5 14q44 -5 68 -44t41 -104q5 -19 12 -44.5t11.5 -41t9.5 -35.5t7 -32 t2.5 -26t-2.5 -22t-8 -16t-14.5 -12t-23.5 -6q-23 -3 -42.5 9t-29 24t-26.5 39q-24 34 -43.5 60t-36.5 50t-47 70q-21 38 -4 68.5z" />
<glyph unicode="&#xc9;" d="M30.5 601.5q-2.5 16.5 8.5 27.5q0 4 5 9t13 10.5t11 8.5q6 14 9 31.5t3 30t-1 33t-1 28.5q0 31 -12 93t-12 109.5t24 82.5q56 82 156 118.5t208.5 19t192.5 -82.5q28 -22 5.5 -59.5t-71.5 -44.5q-34 -4 -86 9t-85.5 20t-84.5 -9q-36 -16 -47.5 -52.5t-5.5 -76.5t6.5 -85 t-10.5 -79q33 -18 78.5 -21t86 0.5t80.5 3t72.5 -21t51.5 -65.5q-26 -45 -74.5 -62t-94.5 -14t-96 -4.5t-75 -34.5q-18 -19 -27 -46.5t-9.5 -64.5t1.5 -65t8 -74.5t8 -68.5q68 -13 138.5 5.5t155.5 56t132 50.5l6 3t7.5 -2.5t8.5 -5.5t8 -7t7 -6q13 -50 -5 -89t-60 -54 q-38 -13 -108.5 -41.5t-113.5 -44t-105 -28t-118 -9.5q-14 3 -48 3.5t-52.5 7.5t-22.5 28q-20 64 -19.5 151.5t5.5 150.5t-14 150q-2 9 -12 24t-16.5 26t-9 27.5zM304.5 1331q-1.5 18 3.5 31.5t11.5 23t19.5 29t23 41.5q18 35 30.5 55t32 43t42 34t49.5 11q20 0 43 -24.5 t16 -42.5q-30 -82 -55.5 -118.5t-95.5 -100.5q-16 -15 -36.5 -27t-43.5 -16.5t-31 16.5q-7 27 -8.5 45z" />
<glyph unicode="&#xca;" d="M29 1200q29 40 80.5 110.5t78 108t63 94.5t66.5 111q0 3 6 3t17.5 -1.5t17.5 -1.5q29 0 41 -6q20 -26 115.5 -243t97.5 -234q-7 0 -19 -16t-22 -13q-9 5 -35 8t-47 6.5t-24 10.5q-55 138 -125 231q-17 -33 -32 -57t-36 -49.5t-31.5 -37t-43.5 -44.5l-47 -47 q-22 -17 -55 -15.5t-60 12.5q-42 18 -6 70zM30.5 601.5q-2.5 16.5 8.5 27.5q0 4 5 9t13 10.5t11 8.5q6 14 9 31.5t3 30t-1 33t-1 28.5q0 31 -12 93t-12 109.5t24 82.5q56 82 156 118.5t208.5 19t192.5 -82.5q28 -22 5.5 -59.5t-71.5 -44.5q-34 -4 -86 9t-85.5 20t-84.5 -9 q-36 -16 -47.5 -52.5t-5.5 -76.5t6.5 -85t-10.5 -79q33 -18 78.5 -21t86 0.5t80.5 3t72.5 -21t51.5 -65.5q-26 -45 -74.5 -62t-94.5 -14t-96 -4.5t-75 -34.5q-18 -19 -27 -46.5t-9.5 -64.5t1.5 -65t8 -74.5t8 -68.5q68 -13 138.5 5.5t155.5 56t132 50.5l6 3t7.5 -2.5 t8.5 -5.5t8 -7t7 -6q13 -50 -5 -89t-60 -54q-38 -13 -108.5 -41.5t-113.5 -44t-105 -28t-118 -9.5q-14 3 -48 3.5t-52.5 7.5t-22.5 28q-20 64 -19.5 151.5t5.5 150.5t-14 150q-2 9 -12 24t-16.5 26t-9 27.5z" />
<glyph unicode="&#xcb;" d="M30.5 601.5q-2.5 16.5 8.5 27.5q0 4 5 9t13 10.5t11 8.5q6 14 9 31.5t3 30t-1 33t-1 28.5q0 31 -12 93t-12 109.5t24 82.5q56 82 156 118.5t208.5 19t192.5 -82.5q28 -22 5.5 -59.5t-71.5 -44.5q-34 -4 -86 9t-85.5 20t-84.5 -9q-36 -16 -47.5 -52.5t-5.5 -76.5t6.5 -85 t-10.5 -79q33 -18 78.5 -21t86 0.5t80.5 3t72.5 -21t51.5 -65.5q-26 -45 -74.5 -62t-94.5 -14t-96 -4.5t-75 -34.5q-18 -19 -27 -46.5t-9.5 -64.5t1.5 -65t8 -74.5t8 -68.5q68 -13 138.5 5.5t155.5 56t132 50.5l6 3t7.5 -2.5t8.5 -5.5t8 -7t7 -6q13 -50 -5 -89t-60 -54 q-38 -13 -108.5 -41.5t-113.5 -44t-105 -28t-118 -9.5q-14 3 -48 3.5t-52.5 7.5t-22.5 28q-20 64 -19.5 151.5t5.5 150.5t-14 150q-2 9 -12 24t-16.5 26t-9 27.5zM68 1501q0 50 36 84q36 36 86.5 38.5t91 -22.5t56.5 -63q16 -32 11 -70.5t-20.5 -71t-48.5 -49.5t-73 -6 q-4 1 -17 4.5t-21.5 6t-19 7.5t-16.5 11q-65 62 -65 131zM424 1420q-13 41 0 78t41 67t73 34.5t97 -20.5q35 -20 40 -63.5t-13 -77.5q-22 -54 -81 -85t-106 1q-38 25 -51 66z" />
<glyph unicode="&#xcc;" horiz-adv-x="329" d="M25 1567.5q17 30.5 55 48.5t72 14q24 -3 42 -16t30.5 -36t20 -43.5t15.5 -51.5q5 -19 12 -44.5t11.5 -41t9.5 -35.5t6.5 -32t2.5 -26.5t-2 -22.5t-8 -16t-14.5 -12t-23.5 -6q-23 -3 -42.5 9t-29 24t-26.5 39q-24 34 -43.5 60t-36.5 50t-47 70q-21 38 -4 68.5zM56 717.5 q0 68.5 6 171t20 190.5q12 82 80 106t143 -28q35 -35 23 -59q-39 -113 -53 -249.5t-8.5 -243t12.5 -255t4 -244.5q-2 -23 -47 -31t-86 13q-15 7 -27 17t-21 19.5t-16 24.5t-11.5 25t-7.5 29.5t-4.5 28.5t-2.5 31t-1 29.5v32v29.5q0 52 -1.5 173.5t-1.5 190z" />
<glyph unicode="&#xcd;" horiz-adv-x="329" d="M56 717.5q0 68.5 6 171t20 190.5q12 82 80 106t143 -28q35 -35 23 -59q-39 -113 -53 -249.5t-8.5 -243t12.5 -255t4 -244.5q-2 -23 -47 -31t-86 13q-15 7 -27 17t-21 19.5t-16 24.5t-11.5 25t-7.5 29.5t-4.5 28.5t-2.5 31t-1 29.5v32v29.5q0 52 -1.5 173.5t-1.5 190z M186.5 1350q-1.5 18 3.5 31.5t11.5 23t19.5 29t23 41.5q19 35 30.5 54.5t31 43.5t42 34.5t49.5 10.5q20 0 43.5 -25t16.5 -43q-30 -82 -56 -118.5t-96 -100.5q-16 -15 -36.5 -27t-43 -16t-30.5 17q-7 27 -8.5 45z" />
<glyph unicode="&#xce;" horiz-adv-x="329" d="M-106 1200q29 40 80.5 110.5t78 108t63 94.5t66.5 111q0 3 6 3t17.5 -1.5t17.5 -1.5q29 0 41 -6q20 -26 115.5 -243t97.5 -234q-7 0 -19 -16t-22 -13q-9 5 -35 8t-47 6.5t-24 10.5q-55 138 -125 231q-17 -33 -32.5 -57.5t-36 -49t-32 -37t-43.5 -44t-47 -47.5 q-22 -17 -54.5 -15.5t-59.5 12.5q-42 18 -6 70zM56 717.5q0 68.5 6 171t20 190.5q12 82 80 106t143 -28q35 -35 23 -59q-39 -113 -53 -249.5t-8.5 -243t12.5 -255t4 -244.5q-2 -23 -47 -31t-86 13q-15 7 -27 17t-21 19.5t-16 24.5t-11.5 25t-7.5 29.5t-4.5 28.5t-2.5 31 t-1 29.5v32v29.5q0 52 -1.5 173.5t-1.5 190z" />
<glyph unicode="&#xcf;" horiz-adv-x="329" d="M-121 1495q0 50 37 84q36 36 86.5 38.5t91 -22.5t56.5 -63q16 -32 11 -70.5t-20.5 -71t-49 -49.5t-73.5 -6q-4 1 -17 4.5t-21 6t-18.5 7.5t-16.5 11q-66 63 -66 131zM56 717.5q0 68.5 6 171t20 190.5q12 82 80 106t143 -28q35 -35 23 -59q-39 -113 -53 -249.5t-8.5 -243 t12.5 -255t4 -244.5q-2 -23 -47 -31t-86 13q-15 7 -27 17t-21 19.5t-16 24.5t-11.5 25t-7.5 29.5t-4.5 28.5t-2.5 31t-1 29.5v32v29.5q0 52 -1.5 173.5t-1.5 190zM230.5 1447.5q-0.5 27.5 8.5 55t29.5 48.5t46 33t60.5 10t71 -21q35 -20 40 -63.5t-13 -77.5 q-22 -54 -80.5 -85t-105.5 1q-27 18 -41.5 45t-15 54.5z" />
<glyph unicode="&#xd1;" horiz-adv-x="694" d="M-26.5 1313q-1.5 31 12.5 51q14 22 29.5 46.5t22 34.5t22 28t40.5 43q39 39 65.5 60.5t64 41t76.5 16.5t81 -28q26 -16 36 -46.5t17.5 -66.5t22.5 -57q20 -28 35.5 -33t30 9t29 33.5t40.5 45t57 39.5q37 13 57 -14t5 -56q-82 -124 -134.5 -164.5t-146.5 -44.5 q-40 -2 -74 25t-47 72q-13 43 -27.5 64t-33.5 15q-38 -12 -64 -36.5t-37 -46.5t-31 -43t-46 -27t-82 2q-19 6 -20.5 37zM47 174q12 97 23.5 381t44.5 442q4 19 32 26t58 1.5t43 -18.5q53 -70 92 -176l78 -212t92 -176q15 38 19 76.5t0.5 99.5t-3.5 76q0 63 -20.5 153 t-35 174t-3.5 153q4 28 37 41.5t68.5 6t45.5 -31.5q27 -71 44 -146.5t23.5 -167.5t7.5 -148.5t1 -166.5v-43q0 -96 -16.5 -170t-67.5 -125q-27 -31 -75.5 -34t-75.5 26q-29 33 -58.5 79t-46 76t-47.5 92t-41 81q-22 -57 -23.5 -134t3 -134.5t-14.5 -135.5 q-7 -25 -37.5 -37.5t-68.5 -5t-62 34.5q-16 19 -16 43z" />
<glyph unicode="&#xd2;" horiz-adv-x="827" d="M55 582q20 68 62 134.5t97 120.5t122.5 87t135 39.5t138.5 -27.5t129 -109q78 -100 87.5 -225.5t-44.5 -236t-155 -177.5q-101 -69 -210.5 -72.5t-203.5 62.5q-97 71 -143 180.5t-15 223.5zM268 457q9 -41 25 -75.5t42 -65t59 -37t77 9.5q95 44 133.5 145.5t11.5 212.5 q-14 55 -78.5 78.5t-123.5 11.5q-48 -9 -102 -119t-44 -161zM279 1373.5q17 30.5 55 48.5t72 14q31 -4 53.5 -28.5t33 -51t21.5 -68.5q5 -19 12 -44.5t11.5 -41t9.5 -35.5t7 -32t2.5 -26t-2.5 -22t-8 -16t-14.5 -12t-23.5 -6q-23 -3 -42.5 8.5t-29 24t-26.5 38.5 q-24 34 -43.5 60.5t-36.5 50.5t-47 70q-21 38 -4 68.5z" />
<glyph unicode="&#xd3;" horiz-adv-x="827" d="M55 582q20 68 62 134.5t97 120.5t122.5 87t135 39.5t138.5 -27.5t129 -109q78 -100 87.5 -225.5t-44.5 -236t-155 -177.5q-101 -69 -210.5 -72.5t-203.5 62.5q-97 71 -143 180.5t-15 223.5zM268 457q9 -41 25 -75.5t42 -65t59 -37t77 9.5q95 44 133.5 145.5t11.5 212.5 q-14 55 -78.5 78.5t-123.5 11.5q-48 -9 -102 -119t-44 -161zM429.5 1161q-1.5 18 3.5 31.5t11.5 23t19.5 29t23 41.5q19 35 31 55t31.5 43.5t42 34.5t49.5 11q20 0 43 -25t16 -43q-30 -82 -55.5 -118.5t-95.5 -100.5q-16 -15 -36.5 -27t-43.5 -16.5t-31 16.5q-7 27 -8.5 45z " />
<glyph unicode="&#xd4;" horiz-adv-x="827" d="M55 582q20 68 62 134.5t97 120.5t122.5 87t135 39.5t138.5 -27.5t129 -109q78 -100 87.5 -225.5t-44.5 -236t-155 -177.5q-101 -69 -210.5 -72.5t-203.5 62.5q-97 71 -143 180.5t-15 223.5zM178 999q30 42 80.5 111t78 107.5t64 95t66.5 110.5q0 3 6 3t17.5 -1.5 t17.5 -1.5q29 0 41 -6q20 -26 115.5 -243t97.5 -234q-7 0 -19 -16t-22 -13q-9 5 -35.5 8t-47.5 6.5t-24 10.5q-55 138 -125 231q-17 -33 -32 -57t-36 -49.5t-31.5 -37t-43.5 -44.5l-47 -47q-23 -17 -55.5 -15t-59.5 13q-42 18 -6 69zM268 457q9 -41 25 -75.5t42 -65t59 -37 t77 9.5q95 44 133.5 145.5t11.5 212.5q-14 55 -78.5 78.5t-123.5 11.5q-48 -9 -102 -119t-44 -161z" />
<glyph unicode="&#xd5;" horiz-adv-x="827" d="M55 582q20 68 62 134.5t97 120.5t122.5 87t135 39.5t138.5 -27.5t129 -109q78 -100 87.5 -225.5t-44.5 -236t-155 -177.5q-101 -69 -210.5 -72.5t-203.5 62.5q-97 71 -143 180.5t-15 223.5zM67.5 1131q-1.5 31 12.5 51q12 19 25 39.5t18.5 29t15.5 21.5t22.5 26.5 t33.5 34.5q31 31 51.5 49t51 38t57 26t59.5 1.5t67 -24.5q26 -16 36 -46.5t17.5 -66.5t22.5 -57q20 -28 35.5 -33t30 9t29.5 34t41 45.5t57 39.5q37 13 56.5 -14t4.5 -56q-82 -124 -134.5 -164.5t-146.5 -44.5q-40 -2 -73.5 24.5t-46.5 71.5q-13 43 -28 64.5t-34 15.5 q-38 -12 -64 -36.5t-37 -46.5t-31 -43t-46 -27t-82 2q-19 6 -20.5 37zM268 457q9 -41 25 -75.5t42 -65t59 -37t77 9.5q95 44 133.5 145.5t11.5 212.5q-14 55 -78.5 78.5t-123.5 11.5q-48 -9 -102 -119t-44 -161z" />
<glyph unicode="&#xd6;" horiz-adv-x="827" d="M55 582q20 68 62 134.5t97 120.5t122.5 87t135 39.5t138.5 -27.5t129 -109q78 -100 87.5 -225.5t-44.5 -236t-155 -177.5q-101 -69 -210.5 -72.5t-203.5 62.5q-97 71 -143 180.5t-15 223.5zM131 1235q0 50 37 84q36 36 86 38.5t90.5 -22.5t56.5 -63q16 -32 11 -70.5 t-20.5 -71t-48.5 -49.5t-73 -6q-4 1 -17 4.5t-21 6t-18.5 7.5t-16.5 11q-66 63 -66 131zM268 457q9 -41 25 -75.5t42 -65t59 -37t77 9.5q95 44 133.5 145.5t11.5 212.5q-14 55 -78.5 78.5t-123.5 11.5q-48 -9 -102 -119t-44 -161zM482.5 1186.5q-0.5 27.5 8.5 55.5 t29.5 48.5t46 33t60.5 10.5t71 -21q35 -20 40 -64t-13 -78q-22 -54 -80.5 -85t-105.5 1q-27 18 -41.5 45t-15 54.5z" />
<glyph unicode="&#xd9;" horiz-adv-x="983" d="M48.5 571q-11.5 118 1 235.5t48.5 237.5q18 58 78 86t125 0q42 -48 31 -96q-41 -94 -58.5 -203.5t-9.5 -216.5t55 -199.5t130 -142.5q51 -32 94.5 -24.5t78 38t60 80t41.5 101t22 102.5q15 62 16.5 136t-5 132.5t-14 137t-7.5 133.5q-3 26 10 45.5t41 32.5t55 20.5 t64 16.5q7 1 10 2q0 -17 20.5 -24.5t20.5 -16.5q14 -102 21 -185t5 -181t-17 -180.5t-49 -170t-87 -164.5q-65 -94 -171.5 -161t-219.5 -76t-200 79q-82 87 -130 197.5t-59.5 228.5zM332 1561.5q17 30.5 55 48.5t72 14q24 -3 42 -16t30.5 -36t20 -43.5t15.5 -51.5 q5 -19 12 -44.5t11.5 -41t9.5 -35.5t6.5 -32t2.5 -26.5t-2 -22.5t-8 -16t-14.5 -12t-23.5 -6q-23 -3 -42.5 9t-29 24t-26.5 39q-24 34 -43.5 60t-36.5 50t-47 70q-21 38 -4 68.5z" />
<glyph unicode="&#xda;" horiz-adv-x="983" d="M48.5 571q-11.5 118 1 235.5t48.5 237.5q18 58 78 86t125 0q42 -48 31 -96q-41 -94 -58.5 -203.5t-9.5 -216.5t55 -199.5t130 -142.5q51 -32 94.5 -24.5t78 38t60 80t41.5 101t22 102.5q15 62 16.5 136t-5 132.5t-14 137t-7.5 133.5q-3 26 10 45.5t41 32.5t55 20.5 t64 16.5q7 1 10 2q0 -17 20.5 -24.5t20.5 -16.5q14 -102 21 -185t5 -181t-17 -180.5t-49 -170t-87 -164.5q-65 -94 -171.5 -161t-219.5 -76t-200 79q-82 87 -130 197.5t-59.5 228.5zM476.5 1315q-1.5 18 3.5 31.5t12 23t20 29t23 41.5q19 35 30.5 54.5t31 43.5t42 34.5 t49.5 10.5q20 0 43.5 -24.5t16.5 -42.5q-30 -82 -56 -119t-96 -101q-16 -15 -36.5 -27t-43.5 -16t-31 17q-7 27 -8.5 45z" />
<glyph unicode="&#xdb;" horiz-adv-x="983" d="M48.5 571q-11.5 118 1 235.5t48.5 237.5q18 58 78 86t125 0q42 -48 31 -96q-41 -94 -58.5 -203.5t-9.5 -216.5t55 -199.5t130 -142.5q51 -32 94.5 -24.5t78 38t60 80t41.5 101t22 102.5q15 62 16.5 136t-5 132.5t-14 137t-7.5 133.5q-3 26 10 45.5t41 32.5t55 20.5 t64 16.5q7 1 10 2q0 -17 20.5 -24.5t20.5 -16.5q14 -102 21 -185t5 -181t-17 -180.5t-49 -170t-87 -164.5q-65 -94 -171.5 -161t-219.5 -76t-200 79q-82 87 -130 197.5t-59.5 228.5zM207 1194q30 42 80.5 111t78 107.5t64 95t66.5 110.5q0 3 6 3t17.5 -1.5t17.5 -1.5 q29 0 41 -6q20 -26 115.5 -243t97.5 -234q-7 0 -19 -16t-22 -13q-9 5 -35.5 7.5t-47.5 6t-24 10.5q-56 140 -125 232q-14 -28 -29 -51.5t-26 -39t-29.5 -36.5t-28.5 -31.5t-36.5 -37l-40.5 -40.5q-23 -17 -55.5 -15t-59.5 13q-42 18 -6 70z" />
<glyph unicode="&#xdc;" horiz-adv-x="983" d="M48.5 571q-11.5 118 1 235.5t48.5 237.5q18 58 78 86t125 0q42 -48 31 -96q-41 -94 -58.5 -203.5t-9.5 -216.5t55 -199.5t130 -142.5q51 -32 94.5 -24.5t78 38t60 80t41.5 101t22 102.5q15 62 16.5 136t-5 132.5t-14 137t-7.5 133.5q-3 26 10 45.5t41 32.5t55 20.5 t64 16.5q7 1 10 2q0 -17 20.5 -24.5t20.5 -16.5q14 -102 21 -185t5 -181t-17 -180.5t-49 -170t-87 -164.5q-65 -94 -171.5 -161t-219.5 -76t-200 79q-82 87 -130 197.5t-59.5 228.5zM227 1442q0 50 37 84q36 36 86.5 38.5t91 -22.5t56.5 -63q16 -32 11 -70.5t-20.5 -71 t-48.5 -49.5t-73 -6q-4 1 -17 4.5t-21.5 6t-19 7.5t-16.5 11q-66 63 -66 131zM579 1393.5q0 27.5 8.5 55.5t29.5 48.5t46.5 33t60.5 10.5t71 -21q35 -20 39.5 -64.5t-13.5 -77.5q-22 -54 -80.5 -85t-105.5 1q-27 18 -41.5 45t-14.5 54.5z" />
<glyph unicode="&#xe0;" horiz-adv-x="724" d="M41 332q8 87 49 141q46 62 110 101t122.5 50.5t110 13.5t84 -2t32.5 -3q10 16 15 44.5t-1.5 54.5t-27.5 30q-29 6 -57.5 6.5t-51 -3.5t-49.5 -12.5t-47 -17t-49.5 -20t-51.5 -19.5q-28 -10 -49.5 9.5t-29 50.5t-10 59.5t6.5 36.5q57 39 135 63.5t157.5 29.5t149.5 -27 t103 -101q28 -60 31 -132t-9.5 -129t-30 -138.5t-21.5 -138.5q-13 -196 -36 -267q-35 -96 -98 -55q-14 9 -25 28.5t-19.5 32.5t-20.5 13q-29 5 -86.5 12.5t-92 14.5t-79 21.5t-77.5 41t-56 65.5q-39 59 -31 146zM188 301q-1 -25 29 -48t73 -36t87 -20.5t77 -5t38 13.5 q5 29 17.5 71.5t19.5 69t6 65t-17 76.5q-29 -11 -78.5 -19t-89 -15.5t-78 -22.5t-61 -47t-23.5 -82zM229 1340.5q17 30.5 55 48.5t72 14q44 -5 68 -44t41 -104q5 -19 12 -44.5t11.5 -41t9.5 -35.5t7 -32t2.5 -26t-2.5 -22t-8 -16t-14.5 -12t-23.5 -6q-23 -3 -42.5 8.5 t-29.5 24.5t-27 39q-24 34 -43.5 60t-36.5 50t-47 70q-21 38 -4 68.5z" />
<glyph unicode="&#xe1;" horiz-adv-x="724" d="M41 332q8 87 49 141q46 62 110 101t122.5 50.5t110 13.5t84 -2t32.5 -3q10 16 15 44.5t-1.5 54.5t-27.5 30q-29 6 -57.5 6.5t-51 -3.5t-49.5 -12.5t-47 -17t-49.5 -20t-51.5 -19.5q-28 -10 -49.5 9.5t-29 50.5t-10 59.5t6.5 36.5q57 39 135 63.5t157.5 29.5t149.5 -27 t103 -101q28 -60 31 -132t-9.5 -129t-30 -138.5t-21.5 -138.5q-13 -196 -36 -267q-35 -96 -98 -55q-14 9 -25 28.5t-19.5 32.5t-20.5 13q-29 5 -86.5 12.5t-92 14.5t-79 21.5t-77.5 41t-56 65.5q-39 59 -31 146zM188 301q-1 -25 29 -48t73 -36t87 -20.5t77 -5t38 13.5 q5 29 17.5 71.5t19.5 69t6 65t-17 76.5q-29 -11 -78.5 -19t-89 -15.5t-78 -22.5t-61 -47t-23.5 -82zM362.5 1085q-1.5 18 3.5 31.5t11.5 23t19.5 29t23 41.5q19 36 30.5 55t31 43.5t42 35t49.5 10.5q20 0 43.5 -25t16.5 -43q-30 -82 -56 -118.5t-96 -100.5 q-16 -15 -36.5 -27t-43 -16.5t-30.5 16.5q-7 27 -8.5 45z" />
<glyph unicode="&#xe2;" horiz-adv-x="724" d="M41 332q8 87 49 141q46 62 110 101t122.5 50.5t110 13.5t84 -2t32.5 -3q10 16 15 44.5t-1.5 54.5t-27.5 30q-29 6 -57.5 6.5t-51 -3.5t-49.5 -12.5t-47 -17t-49.5 -20t-51.5 -19.5q-28 -10 -49.5 9.5t-29 50.5t-10 59.5t6.5 36.5q57 39 135 63.5t157.5 29.5t149.5 -27 t103 -101q28 -60 31 -132t-9.5 -129t-30 -138.5t-21.5 -138.5q-13 -196 -36 -267q-35 -96 -98 -55q-14 9 -25 28.5t-19.5 32.5t-20.5 13q-29 5 -86.5 12.5t-92 14.5t-79 21.5t-77.5 41t-56 65.5q-39 59 -31 146zM145 961q31 43 81 111t78 106.5t64 95t66 110.5q0 3 6 3 t17.5 -1.5t17.5 -1.5q29 0 41 -6q20 -26 115.5 -243t97.5 -234q-7 0 -19 -16t-22 -13q-9 5 -35 8t-47 6.5t-24 10.5q-55 138 -125 231q-17 -33 -32.5 -57.5t-36 -49t-32 -37t-43.5 -44t-47 -47.5q-23 -17 -55 -15t-59 13q-43 19 -7 70zM188 301q-1 -25 29 -48t73 -36 t87 -20.5t77 -5t38 13.5q5 29 17.5 71.5t19.5 69t6 65t-17 76.5q-29 -11 -78.5 -19t-89 -15.5t-78 -22.5t-61 -47t-23.5 -82z" />
<glyph unicode="&#xe3;" horiz-adv-x="724" d="M14.5 1137q-1.5 31 12.5 51q14 21 29.5 46t22 34.5t21.5 27t41 43.5q39 39 65.5 60.5t64 41.5t76.5 17t81 -28q26 -16 36 -46.5t17.5 -66.5t22.5 -57q20 -28 35.5 -33t30 9t29 33.5t40.5 45t57 39.5q37 13 57 -14t5 -56q-82 -124 -134.5 -164.5t-146.5 -44.5 q-40 -2 -74 24.5t-47 71.5q-13 44 -27.5 65t-33.5 15q-38 -12 -64 -36.5t-37 -46.5t-31 -43t-46 -27t-82 2q-19 6 -20.5 37zM41 332q8 87 49 141q46 62 110 101t122.5 50.5t110 13.5t84 -2t32.5 -3q10 16 15 44.5t-1.5 54.5t-27.5 30q-29 6 -57.5 6.5t-51 -3.5t-49.5 -12.5 t-47 -17t-49.5 -20t-51.5 -19.5q-28 -10 -49.5 9.5t-29 50.5t-10 59.5t6.5 36.5q57 39 135 63.5t157.5 29.5t149.5 -27t103 -101q28 -60 31 -132t-9.5 -129t-30 -138.5t-21.5 -138.5q-13 -196 -36 -267q-35 -96 -98 -55q-14 9 -25 28.5t-19.5 32.5t-20.5 13 q-29 5 -86.5 12.5t-92 14.5t-79 21.5t-77.5 41t-56 65.5q-39 59 -31 146zM188 301q-1 -25 29 -48t73 -36t87 -20.5t77 -5t38 13.5q5 29 17.5 71.5t19.5 69t6 65t-17 76.5q-29 -11 -78.5 -19t-89 -15.5t-78 -22.5t-61 -47t-23.5 -82z" />
<glyph unicode="&#xe4;" horiz-adv-x="724" d="M41 332q8 87 49 141q46 62 110 101t122.5 50.5t110 13.5t84 -2t32.5 -3q10 16 15 44.5t-1.5 54.5t-27.5 30q-29 6 -57.5 6.5t-51 -3.5t-49.5 -12.5t-47 -17t-49.5 -20t-51.5 -19.5q-28 -10 -49.5 9.5t-29 50.5t-10 59.5t6.5 36.5q57 39 135 63.5t157.5 29.5t149.5 -27 t103 -101q28 -60 31 -132t-9.5 -129t-30 -138.5t-21.5 -138.5q-13 -196 -36 -267q-35 -96 -98 -55q-14 9 -25 28.5t-19.5 32.5t-20.5 13q-29 5 -86.5 12.5t-92 14.5t-79 21.5t-77.5 41t-56 65.5q-39 59 -31 146zM61 1200q0 50 37 84q36 36 86.5 38.5t91 -22.5t56.5 -63 q16 -32 11 -70.5t-20.5 -71t-48.5 -49.5t-73 -6q-4 1 -17 4.5t-21.5 6t-19 7.5t-16.5 11q-66 63 -66 131zM188 301q-1 -25 29 -48t73 -36t87 -20.5t77 -5t38 13.5q5 29 17.5 71.5t19.5 69t6 65t-17 76.5q-29 -11 -78.5 -19t-89 -15.5t-78 -22.5t-61 -47t-23.5 -82zM418 1119 q-13 41 0 78t41 67t73 34.5t97 -20.5q35 -20 39.5 -64t-13.5 -77q-22 -54 -80.5 -85t-105.5 1q-38 25 -51 66z" />
<glyph unicode="&#xe5;" horiz-adv-x="724" d="M41 332q8 87 49 141q46 62 110 101t122.5 50.5t110 13.5t84 -2t32.5 -3q10 16 15 44.5t-1.5 54.5t-27.5 30q-29 6 -57.5 6.5t-51 -3.5t-49.5 -12.5t-47 -17t-49.5 -20t-51.5 -19.5q-28 -10 -49.5 9.5t-29 50.5t-10 59.5t6.5 36.5q57 39 135 63.5t157.5 29.5t149.5 -27 t103 -101q28 -60 31 -132t-9.5 -129t-30 -138.5t-21.5 -138.5q-13 -196 -36 -267q-35 -96 -98 -55q-14 9 -25 28.5t-19.5 32.5t-20.5 13q-29 5 -86.5 12.5t-92 14.5t-79 21.5t-77.5 41t-56 65.5q-39 59 -31 146zM188 301q-1 -25 29 -48t73 -36t87 -20.5t77 -5t38 13.5 q5 29 17.5 71.5t19.5 69t6 65t-17 76.5q-29 -11 -78.5 -19t-89 -15.5t-78 -22.5t-61 -47t-23.5 -82zM334 1047q-7 62 39 114.5t108 61.5q53 9 97 -45q28 -35 26 -77t-20.5 -78.5t-48.5 -66.5q-28 -28 -59.5 -36.5t-65.5 8.5q-69 42 -76 119zM428 1077q-2 -18 6 -33.5 t25 -21.5q15 -8 33 14q31 44 14 72q-9 18 -25 18q-20 0 -35.5 -15t-17.5 -34z" />
<glyph unicode="&#xe7;" horiz-adv-x="774" d="M29 532q34 195 170 316q8 7 34.5 31t37.5 33.5t37 31t40.5 31t40.5 26t43.5 22.5t42.5 14t45.5 7.5t44.5 -4.5t47 -14q47 -19 27 -80q-15 -43 -45.5 -72t-61 -41.5t-75 -32.5t-74.5 -42q-152 -117 -160 -246q-8 -114 43 -190q15 -24 39.5 -41.5t42.5 -25t55 -19t52 -17.5 q35 -11 61 -4.5t55 25t51.5 38t50.5 35.5t52 17q31 2 42.5 -16.5t5 -47.5t-16 -52.5t-19.5 -39.5q-65 -99 -180 -119l12 -12q12 -12 -0.5 -113t-40.5 -129q-36 -36 -117.5 -45t-136.5 21q-95 58 -28 125q17 17 50.5 11.5t59 -14.5t50.5 9q12 10 12 39t-4 56t2 52 q-50 7 -129 29q-141 41 -212 167.5t-46 280.5z" />
<glyph unicode="&#xe8;" horiz-adv-x="694" d="M45 578q-3 154 97 248.5t249 72.5q122 -18 213 -119.5t90 -228.5q-14 -43 -80.5 -89.5t-148.5 -93t-111 -73.5q-11 -3 -25.5 -16.5t-6.5 -26.5q26 -45 62 -63t82 -10.5t83 22t90 41.5q35 -25 39 -68.5t-21.5 -79t-66.5 -41.5q-7 -1 -45 -7t-51 -8t-46 -4.5t-52 0t-46 8 t-51 15.5q-246 110 -254 521zM125 1307.5q17 30.5 55 48.5t72 14q24 -3 42 -16t30.5 -36t20 -43.5t15.5 -51.5q5 -19 12 -44.5t11.5 -41t9.5 -35.5t6.5 -32t2.5 -26.5t-2 -22.5t-8 -16t-14.5 -12t-23.5 -6q-23 -3 -42.5 9t-29 24t-26.5 39q-24 34 -43.5 60t-36.5 50t-47 70 q-21 38 -4 68.5zM228.5 634q-12.5 -59 1 -109t38.5 -52q183 8 221 129q16 36 -1.5 66.5t-53.5 44t-77.5 17t-73.5 -14.5q-42 -22 -54.5 -81z" />
<glyph unicode="&#xe9;" horiz-adv-x="694" d="M45 578q-3 154 97 248.5t249 72.5q122 -18 213 -119.5t90 -228.5q-14 -43 -80.5 -89.5t-148.5 -93t-111 -73.5q-11 -3 -25.5 -16.5t-6.5 -26.5q26 -45 62 -63t82 -10.5t83 22t90 41.5q35 -25 39 -68.5t-21.5 -79t-66.5 -41.5q-7 -1 -45 -7t-51 -8t-46 -4.5t-52 0t-46 8 t-51 15.5q-246 110 -254 521zM228.5 634q-12.5 -59 1 -109t38.5 -52q183 8 221 129q16 36 -1.5 66.5t-53.5 44t-77.5 17t-73.5 -14.5q-42 -22 -54.5 -81zM317.5 1049q-1.5 18 3.5 31.5t11.5 23t19.5 29t23 41.5q19 35 30.5 54.5t31 43.5t42 34.5t49.5 10.5q20 0 43.5 -25 t16.5 -43q-30 -82 -56 -118.5t-96 -100.5q-16 -15 -36.5 -27t-43 -16t-30.5 17q-7 27 -8.5 45z" />
<glyph unicode="&#xea;" horiz-adv-x="694" d="M29 934q29 40 80.5 110.5t78 108t63 94.5t66.5 111q0 3 6 3t17.5 -1.5t17.5 -1.5q29 0 41 -6q20 -26 115.5 -243.5t97.5 -234.5q-7 0 -19 -15.5t-22 -12.5q-9 5 -35 7.5t-47 6t-24 10.5q-56 140 -125 232q-14 -28 -29 -51.5t-26 -39t-29.5 -36.5t-28.5 -31.5t-36.5 -37 l-40.5 -40.5q-23 -17 -55.5 -15t-59.5 13q-42 18 -6 70zM45 578q-3 154 97 248.5t249 72.5q122 -18 213 -119.5t90 -228.5q-14 -43 -80.5 -89.5t-148.5 -93t-111 -73.5q-11 -3 -25.5 -16.5t-6.5 -26.5q26 -45 62 -63t82 -10.5t83 22t90 41.5q35 -25 39 -68.5t-21.5 -79 t-66.5 -41.5q-7 -1 -45 -7t-51 -8t-46 -4.5t-52 0t-46 8t-51 15.5q-246 110 -254 521zM228.5 634q-12.5 -59 1 -109t38.5 -52q183 8 221 129q16 36 -1.5 66.5t-53.5 44t-77.5 17t-73.5 -14.5q-42 -22 -54.5 -81z" />
<glyph unicode="&#xeb;" horiz-adv-x="694" d="M45 578q-3 154 97 248.5t249 72.5q122 -18 213 -119.5t90 -228.5q-14 -43 -80.5 -89.5t-148.5 -93t-111 -73.5q-11 -3 -25.5 -16.5t-6.5 -26.5q26 -45 62 -63t82 -10.5t83 22t90 41.5q35 -25 39 -68.5t-21.5 -79t-66.5 -41.5q-7 -1 -45 -7t-51 -8t-46 -4.5t-52 0t-46 8 t-51 15.5q-246 110 -254 521zM55 1188q0 50 37 84q36 36 86.5 38.5t91 -22.5t56.5 -63q16 -32 11 -70.5t-20.5 -71t-48.5 -49.5t-73 -6q-4 1 -17 4.5t-21.5 6t-19 7.5t-16.5 11q-66 63 -66 131zM228.5 634q-12.5 -59 1 -109t38.5 -52q183 8 221 129q16 36 -1.5 66.5 t-53.5 44t-77.5 17t-73.5 -14.5q-42 -22 -54.5 -81zM407 1139.5q0 27.5 8.5 55.5t29.5 48.5t46.5 33t60.5 10.5t71 -21q35 -20 39.5 -64.5t-13.5 -77.5q-22 -54 -80.5 -85t-105.5 1q-27 18 -41.5 45t-14.5 54.5z" />
<glyph unicode="&#xec;" horiz-adv-x="378" d="M12 1207.5q17 30.5 55 48.5t72 14q44 -5 68 -44t41 -104q5 -19 12 -44.5t11.5 -41t9.5 -35.5t7 -32t2.5 -26t-2.5 -22t-8 -16t-14.5 -12t-23.5 -6q-23 -3 -42.5 8.5t-30 24t-26.5 38.5q-24 34 -43.5 60.5t-36.5 50.5t-47 70q-21 38 -4 68.5zM76 273q-2 59 4 135t6 110 q0 54 1 83.5t10 73t26 77.5q20 39 67 52.5t93 -7.5q20 -9 36 -25t21 -36t-12 -38q-28 -39 -35 -85.5t-8 -95.5t-11 -79q-19 -47 -3 -143t3 -143q0 -7 -6 -17t-12 -10q-138 -39 -162 37q-16 52 -18 111z" />
<glyph unicode="&#xed;" horiz-adv-x="378" d="M76 273q-2 59 4 135t6 110q0 54 1 83.5t10 73t26 77.5q20 39 67 52.5t93 -7.5q20 -9 36 -25t21 -36t-12 -38q-28 -39 -35 -85.5t-8 -95.5t-11 -79q-19 -47 -3 -143t3 -143q0 -7 -6 -17t-12 -10q-138 -39 -162 37q-16 52 -18 111zM163.5 1014q-1.5 18 3.5 31.5t11.5 23 t19.5 29t23 41.5q18 35 30.5 55t32 43t42 34t49.5 11q20 0 43 -25t16 -43q-30 -82 -55.5 -118.5t-95.5 -100.5q-16 -15 -36.5 -27t-43.5 -16t-31 17q-7 27 -8.5 45z" />
<glyph unicode="&#xee;" horiz-adv-x="378" d="M-94 899q30 42 80.5 111t78 107.5t64 95t66.5 110.5q0 3 6 3t17.5 -1.5t17.5 -1.5q28 0 40 -6q20 -26 115.5 -243t97.5 -234q-7 0 -18.5 -16t-21.5 -13q-9 5 -35.5 8t-47.5 6.5t-24 10.5q-55 138 -125 231q-14 -28 -29 -51.5t-26 -39t-29.5 -36.5t-28.5 -31.5t-36.5 -37 l-40.5 -40.5q-23 -17 -55.5 -15t-59.5 13q-42 18 -6 70zM76 273q-2 59 4 135t6 110q0 54 1 83.5t10 73t26 77.5q20 39 67 52.5t93 -7.5q20 -9 36 -25t21 -36t-12 -38q-28 -39 -35 -85.5t-8 -95.5t-11 -79q-19 -47 -3 -143t3 -143q0 -7 -6 -17t-12 -10q-138 -39 -162 37 q-16 52 -18 111z" />
<glyph unicode="&#xef;" horiz-adv-x="378" d="M-70 1128q0 50 37 84q36 36 86.5 38.5t91 -22.5t56.5 -63q16 -32 11 -70.5t-20.5 -70.5t-48.5 -49t-73 -6q-3 1 -22 5.5t-31.5 9.5t-20.5 13q-66 63 -66 131zM76 273q-2 59 4 135t6 110q0 54 1 83.5t10 73t26 77.5q20 39 67 52.5t93 -7.5q20 -9 36 -25t21 -36t-12 -38 q-28 -39 -35 -85.5t-8 -95.5t-11 -79q-19 -47 -3 -143t3 -143q0 -7 -6 -17t-12 -10q-138 -39 -162 37q-16 52 -18 111zM287 1047q-13 41 0 78t41 67t73 34.5t97 -20.5q35 -20 39.5 -64t-13.5 -77q-22 -54 -80.5 -85t-105.5 1q-38 25 -51 66z" />
<glyph unicode="&#xf1;" horiz-adv-x="737" d="M38.5 983q-1.5 31 12.5 51q14 21 29.5 46.5t22.5 35t22 27t41 43.5q39 39 65.5 60.5t64 41t76.5 16.5t81 -28q25 -16 35.5 -46.5t17.5 -66.5t22 -57q20 -28 35.5 -33t30 9t29.5 33.5t41.5 45t56.5 39.5q37 13 56.5 -14t4.5 -56q-82 -124 -134 -164t-146 -44 q-40 -2 -74 24.5t-47 71.5q-13 43 -28 64.5t-34 15.5q-38 -12 -64 -36.5t-37 -46.5t-31 -43.5t-46 -27.5t-82 2q-19 6 -20.5 37zM80 685q2 55 18 97q12 29 47.5 40t70 -3t44.5 -47q8 -29 -5 -83t-13 -73q4 -4 11 -17q5 -9 6 -9t1 2q4 6 20 33.5t21 35.5t20.5 31.5t23 31.5 t24 25.5t27.5 23t29 15t34 10.5t36 0t42 -7q27 -44 46.5 -96.5t30.5 -95.5t18 -108t9 -102t4.5 -110.5t3.5 -102.5q9 -25 3.5 -61t-29.5 -43q-19 -5 -29 -7.5t-28.5 -6t-30 -3t-24 3t-19.5 10.5t-9 21q-12 78 -18 245.5t-25 256.5q-44 -49 -75 -119.5t-61 -153t-62 -135.5 q-24 -41 -74.5 -42.5t-69.5 42.5q-13 35 -15 77t2.5 100.5t4.5 82.5q0 33 -6 109.5t-4 131.5z" />
<glyph unicode="&#xf2;" horiz-adv-x="577" d="M63 678q14 50 41.5 94.5t54.5 80t36 56.5q23 53 73.5 66t103.5 -8.5t93 -65.5q69 -79 100 -201q55 -206 -141 -413q-33 -34 -100 -38.5t-107 19.5q-103 61 -145.5 176.5t-8.5 233.5zM66 1448.5q17 30.5 55 48.5t72 14q24 -3 42 -16t30.5 -36t20 -43.5t15.5 -51.5 q5 -19 12 -44.5t11.5 -41t9.5 -35.5t6.5 -32t2.5 -26.5t-2 -22.5t-8 -16t-14.5 -12t-23.5 -6q-23 -3 -42.5 9t-29 24t-26.5 39q-24 34 -43.5 60t-36.5 50t-47 70q-21 38 -4 68.5zM196 609q-26 -99 64 -131q11 -4 23 -7q70 -16 102.5 30.5t17.5 121t-69 133.5q-19 20 -65 -25 q-55 -54 -73 -122z" />
<glyph unicode="&#xf3;" horiz-adv-x="577" d="M63 678q14 50 41.5 94.5t54.5 80t36 56.5q23 53 73.5 66t103.5 -8.5t93 -65.5q69 -79 100 -201q55 -206 -141 -413q-33 -34 -100 -38.5t-107 19.5q-103 61 -145.5 176.5t-8.5 233.5zM196 609q-26 -99 64 -131q11 -4 23 -7q70 -16 102.5 30.5t17.5 121t-69 133.5 q-19 20 -65 -25q-55 -54 -73 -122zM294.5 1141q-1.5 18 3.5 31.5t11.5 23t19.5 29t23 41.5q18 35 30.5 55t32 43t42 34t49.5 11q20 0 43 -25t16 -43q-30 -82 -55.5 -118.5t-95.5 -100.5q-16 -15 -36.5 -27t-43.5 -16t-31 17q-7 27 -8.5 45z" />
<glyph unicode="&#xf4;" horiz-adv-x="577" d="M-20 1014q29 40 80.5 110.5t78 108t63 94.5t66.5 111q0 3 6 3t17.5 -1.5t17.5 -1.5q29 0 41 -6q20 -26 115.5 -243.5t97.5 -234.5q-7 0 -19 -15.5t-22 -12.5q-9 5 -35 7.5t-47 6t-24 10.5q-56 140 -125 232q-17 -33 -32 -57.5t-36.5 -50t-31.5 -36.5t-43.5 -44.5 l-47.5 -47.5q-23 -17 -55 -15t-59 13q-42 18 -6 70zM63 678q14 50 41.5 94.5t54.5 80t36 56.5q23 53 73.5 66t103.5 -8.5t93 -65.5q69 -79 100 -201q55 -206 -141 -413q-33 -34 -100 -38.5t-107 19.5q-103 61 -145.5 176.5t-8.5 233.5zM196 609q-26 -99 64 -131q11 -4 23 -7 q70 -16 102.5 30.5t17.5 121t-69 133.5q-19 20 -65 -25q-55 -54 -73 -122z" />
<glyph unicode="&#xf5;" horiz-adv-x="577" d="M-35 1129q-2 31 12 51q12 19 25 39.5t18.5 29t15.5 21.5t22.5 26.5t33.5 34.5q39 39 65.5 60.5t64 41t76.5 16.5t81 -28q26 -16 36 -46.5t17.5 -66.5t22.5 -57q20 -28 35.5 -33t30 9t29 34t40.5 45.5t57 39.5q37 13 57 -14t5 -56q-82 -124 -134.5 -164.5t-146.5 -44.5 q-40 -2 -74 24.5t-47 71.5q-13 44 -27.5 65t-33.5 15q-38 -12 -64 -36.5t-37 -46.5t-31 -43t-46 -27t-82 2q-19 6 -21 37zM63 678q14 50 41.5 94.5t54.5 80t36 56.5q23 53 73.5 66t103.5 -8.5t93 -65.5q69 -79 100 -201q55 -206 -141 -413q-33 -34 -100 -38.5t-107 19.5 q-103 61 -145.5 176.5t-8.5 233.5zM196 609q-26 -99 64 -131q11 -4 23 -7q70 -16 102.5 30.5t17.5 121t-69 133.5q-19 20 -65 -25q-55 -54 -73 -122z" />
<glyph unicode="&#xf6;" horiz-adv-x="577" d="M12 1255q0 50 37 84q36 36 86.5 38.5t91 -22.5t56.5 -63q16 -32 11 -70.5t-20.5 -70.5t-48.5 -49t-73 -6q-3 1 -22 5.5t-31.5 9.5t-20.5 13q-66 63 -66 131zM63 678q14 50 41.5 94.5t54.5 80t36 56.5q23 53 73.5 66t103.5 -8.5t93 -65.5q69 -79 100 -201 q55 -206 -141 -413q-33 -34 -100 -38.5t-107 19.5q-103 61 -145.5 176.5t-8.5 233.5zM196 609q-26 -99 64 -131q11 -4 23 -7q70 -16 102.5 30.5t17.5 121t-69 133.5q-19 20 -65 -25q-55 -54 -73 -122zM369 1174q-13 41 0 78t41 67t73 34.5t97 -20.5q35 -20 39.5 -64 t-13.5 -77q-22 -54 -80.5 -85t-105.5 1q-38 25 -51 66z" />
<glyph unicode="&#xf9;" horiz-adv-x="751" d="M51 619.5q-4 60.5 2 113.5q1 11 1.5 52.5t2.5 59t14 43.5t33 40q38 14 77 14t68.5 -21t29.5 -55q0 -44 -4.5 -126t-4.5 -149t9 -126q3 -11 7 -30.5t7.5 -37t8.5 -39t10 -38.5t11.5 -34.5t14.5 -29t17.5 -19t21 -7t24.5 9.5q132 91 163.5 269.5t-60.5 326.5 q-18 28 -28.5 56.5t-8 57t26.5 39.5q54 21 99.5 4t79.5 -58.5t54.5 -93t22.5 -98.5q6 -98 -6.5 -193.5t-43 -186t-89 -161.5t-138.5 -106q-64 -27 -119.5 -27t-96.5 24t-76 65t-57 95.5t-39.5 115.5t-23.5 125.5t-10 125zM131 1401.5q17 30.5 55 48.5t72 14q44 -5 68 -44 t41 -103q5 -20 16 -57q29 -107 25 -137q-5 -37 -48 -42q-23 -3 -42.5 9t-29 24t-26.5 39q-24 34 -43.5 60t-36.5 50t-47 70q-21 38 -4 68.5z" />
<glyph unicode="&#xfa;" horiz-adv-x="751" d="M51 619.5q-4 60.5 2 113.5q1 11 1.5 52.5t2.5 59t14 43.5t33 40q38 14 77 14t68.5 -21t29.5 -55q0 -44 -4.5 -126t-4.5 -149t9 -126q3 -11 7 -30.5t7.5 -37t8.5 -39t10 -38.5t11.5 -34.5t14.5 -29t17.5 -19t21 -7t24.5 9.5q132 91 163.5 269.5t-60.5 326.5 q-18 28 -28.5 56.5t-8 57t26.5 39.5q54 21 99.5 4t79.5 -58.5t54.5 -93t22.5 -98.5q6 -98 -6.5 -193.5t-43 -186t-89 -161.5t-138.5 -106q-64 -27 -119.5 -27t-96.5 24t-76 65t-57 95.5t-39.5 115.5t-23.5 125.5t-10 125zM310.5 1161q-1.5 18 3.5 31.5t12 23t20 29t23 41.5 q19 36 30.5 55t31 43.5t42 35t49.5 10.5q20 0 43.5 -25t16.5 -43q-30 -82 -56 -118.5t-96 -100.5q-16 -15 -36.5 -27t-43.5 -16.5t-31 16.5q-7 27 -8.5 45z" />
<glyph unicode="&#xfb;" horiz-adv-x="751" d="M51 619.5q-4 60.5 2 113.5q1 11 1.5 52.5t2.5 59t14 43.5t33 40q38 14 77 14t68.5 -21t29.5 -55q0 -44 -4.5 -126t-4.5 -149t9 -126q3 -11 7 -30.5t7.5 -37t8.5 -39t10 -38.5t11.5 -34.5t14.5 -29t17.5 -19t21 -7t24.5 9.5q132 91 163.5 269.5t-60.5 326.5 q-18 28 -28.5 56.5t-8 57t26.5 39.5q54 21 99.5 4t79.5 -58.5t54.5 -93t22.5 -98.5q6 -98 -6.5 -193.5t-43 -186t-89 -161.5t-138.5 -106q-64 -27 -119.5 -27t-96.5 24t-76 65t-57 95.5t-39.5 115.5t-23.5 125.5t-10 125zM53 1069q30 42 80.5 111t78 107.5t64 95t66.5 110.5 q0 3 6 3t17.5 -1.5t17.5 -1.5q29 0 41 -6q20 -26 115.5 -243t97.5 -234q-7 0 -19 -16t-22 -13q-9 5 -35.5 8t-47.5 6.5t-24 10.5q-57 141 -124 231q-17 -33 -32 -57.5t-36.5 -50t-31.5 -36.5t-43.5 -44.5l-47.5 -47.5q-23 -17 -55.5 -15t-59.5 13q-42 18 -6 70z" />
<glyph unicode="&#xfc;" horiz-adv-x="751" d="M51 619.5q-4 60.5 2 113.5q1 11 1.5 52.5t2.5 59t14 43.5t33 40q38 14 77 14t68.5 -21t29.5 -55q0 -44 -4.5 -126t-4.5 -149t9 -126q3 -11 7 -30.5t7.5 -37t8.5 -39t10 -38.5t11.5 -34.5t14.5 -29t17.5 -19t21 -7t24.5 9.5q132 91 163.5 269.5t-60.5 326.5 q-18 28 -28.5 56.5t-8 57t26.5 39.5q54 21 99.5 4t79.5 -58.5t54.5 -93t22.5 -98.5q6 -98 -6.5 -193.5t-43 -186t-89 -161.5t-138.5 -106q-64 -27 -119.5 -27t-96.5 24t-76 65t-57 95.5t-39.5 115.5t-23.5 125.5t-10 125zM61 1241q0 50 37 84q36 36 86.5 38.5t91 -22.5 t56.5 -63q16 -32 11 -70.5t-20.5 -71t-48.5 -49.5t-73 -6q-4 1 -17 4.5t-21.5 6t-19 7.5t-16.5 11q-66 63 -66 131zM418 1160q-13 41 0 78t41 67t73 34.5t97 -20.5q35 -20 39.5 -64t-13.5 -77q-22 -54 -80.5 -85t-105.5 1q-38 25 -51 66z" />
<glyph unicode="&#x2000;" horiz-adv-x="858" />
<glyph unicode="&#x2001;" horiz-adv-x="1716" />
<glyph unicode="&#x2002;" horiz-adv-x="858" />
<glyph unicode="&#x2003;" horiz-adv-x="1716" />
<glyph unicode="&#x2004;" horiz-adv-x="572" />
<glyph unicode="&#x2005;" horiz-adv-x="429" />
<glyph unicode="&#x2006;" horiz-adv-x="286" />
<glyph unicode="&#x2007;" horiz-adv-x="286" />
<glyph unicode="&#x2008;" horiz-adv-x="214" />
<glyph unicode="&#x2009;" horiz-adv-x="343" />
<glyph unicode="&#x200a;" horiz-adv-x="95" />
<glyph unicode="&#x2010;" d="M47 543q-7 50 28 87.5t87 37.5q53 0 126.5 -5.5t128.5 -11t126 -5t133 10.5q14 7 31.5 1.5t25.5 -19.5q5 -12 2.5 -24t-3 -20.5t-7.5 -17t-11.5 -14t-14 -11.5t-15.5 -9.5t-17 -8t-17.5 -7t-16.5 -6t-15 -5.5q-259 -74 -534 0q-16 4 -25.5 10.5t-10.5 11.5z" />
<glyph unicode="&#x2011;" d="M47 543q-7 50 28 87.5t87 37.5q53 0 126.5 -5.5t128.5 -11t126 -5t133 10.5q14 7 31.5 1.5t25.5 -19.5q5 -12 2.5 -24t-3 -20.5t-7.5 -17t-11.5 -14t-14 -11.5t-15.5 -9.5t-17 -8t-17.5 -7t-16.5 -6t-15 -5.5q-259 -74 -534 0q-16 4 -25.5 10.5t-10.5 11.5z" />
<glyph unicode="&#x2012;" d="M47 543q-7 50 28 87.5t87 37.5q53 0 126.5 -5.5t128.5 -11t126 -5t133 10.5q14 7 31.5 1.5t25.5 -19.5q5 -12 2.5 -24t-3 -20.5t-7.5 -17t-11.5 -14t-14 -11.5t-15.5 -9.5t-17 -8t-17.5 -7t-16.5 -6t-15 -5.5q-259 -74 -534 0q-16 4 -25.5 10.5t-10.5 11.5z" />
<glyph unicode="&#x2013;" horiz-adv-x="1068" d="M47 543q-11 50 41 87.5t129 37.5q79 0 188 -5.5t190.5 -11t187 -5t197.5 10.5q20 7 46 1.5t38 -19.5q7 -12 3.5 -24t-4 -20.5t-11 -17t-17.5 -14t-21 -11.5t-23 -9.5t-25 -8t-25.5 -7t-24.5 -6t-22 -5.5q-385 -74 -792 0q-24 4 -38 10.5t-16 11.5z" />
<glyph unicode="&#x2014;" horiz-adv-x="2091" d="M48 543q-20 50 83.5 87.5t258.5 37.5q157 0 375 -5.5t381 -11t373.5 -5t394.5 10.5q42 7 93.5 1.5t75.5 -19.5q15 -12 7.5 -24t-9 -20.5t-22 -17t-34 -14t-41.5 -11.5t-46 -9.5t-50.5 -8t-52 -7t-49 -6t-44.5 -5.5q-768 -74 -1584 0q-47 4 -75.5 10.5t-31.5 11.5z" />
<glyph unicode="&#x2018;" horiz-adv-x="438" d="M49.5 1248.5q17.5 30.5 55 48.5t69.5 14q29 -4 46 -29t32 -66t29 -61q19 -26 36.5 -82.5t40 -100t62.5 -61.5q47 -23 -16 -62q-46 -28 -91 -36q-23 -4 -42.5 8t-29 25t-26.5 41q-33 47 -82.5 146t-79.5 147q-21 38 -3.5 68.5z" />
<glyph unicode="&#x2019;" horiz-adv-x="364" d="M51 903q-12 42 1.5 84t51.5 101.5t48 78.5q17 35 29 55t31 43.5t42 34.5t51 11q20 0 43 -25t17 -43q-74 -190 -205 -313q-16 -15 -36.5 -27t-43 -16.5t-29.5 16.5z" />
<glyph unicode="&#x201c;" horiz-adv-x="782" d="M30 1119.5q-1 20.5 8.5 38.5t25 33.5t34 19t35.5 -4.5q40 -22 71.5 -51.5t74.5 -81.5t57 -67q9 -10 32.5 -38t34.5 -41.5t27 -36t24 -41.5t11 -38q3 -27 -23 -45t-61 -15.5t-53 29.5q-154 140 -283 305q-14 14 -15 34.5zM383 1288q30 22 60.5 22.5t53 -11t49 -41 t42.5 -53.5t41.5 -63.5t36.5 -56.5q24 -33 59.5 -95.5t52.5 -88.5q12 -23 -15.5 -45t-62.5 -24t-59 20q-42 42 -108.5 151t-116.5 156q-79 94 -33 129z" />
<glyph unicode="&#x201d;" horiz-adv-x="763" d="M33 993q-26 85 61 156q15 13 63 59.5t81.5 69t72.5 29.5q41 14 69.5 -14t0.5 -64q-33 -46 -123.5 -109t-128.5 -110q-15 -23 -48.5 -32t-47.5 15zM352 840.5q-4 16.5 5 35.5t19.5 34t29.5 37.5t28 35.5q19 28 83 136t110 153q19 27 58 30t73 -22q6 -6 6 -21.5t-6 -21.5 q-117 -250 -297 -393q-22 -22 -48.5 -34t-39.5 -1q-17 15 -21 31.5z" />
<glyph unicode="&#x2022;" horiz-adv-x="585" d="M70 535q-106 215 24 325q60 54 137 74t149.5 -2.5t115.5 -85.5q40 -62 50.5 -138t-15.5 -146.5t-85 -108.5q-71 -46 -140.5 -55.5t-132.5 25t-103 112.5z" />
<glyph unicode="&#x202f;" horiz-adv-x="343" />
<glyph unicode="&#x205f;" horiz-adv-x="429" />
<glyph unicode="&#x20ac;" horiz-adv-x="1177" d="M55 655q62 77 252 70q98 204 307 256q93 16 153.5 10.5t143.5 -30.5q37 -11 64.5 -46t5.5 -73q-9 -18 -25 -29t-29.5 -14.5t-37 -8t-37.5 -8.5q-40 -13 -116.5 4.5t-106.5 6.5q-68 -23 -115 -80q71 -3 123 2q35 3 63.5 -7.5t40.5 -33.5q14 -27 -1.5 -48.5t-42 -32.5 t-60.5 -18q-122 -24 -184 -28q-6 -79 18 -156q0 -8 4 -16q19 -1 46.5 7.5t49 16.5t48 7.5t47.5 -15.5q17 -4 28 10.5t17 10.5q41 -30 29.5 -61.5t-58.5 -47.5q-46 -30 -119 -53q64 -54 145 -70.5t164 10.5q16 5 39 19t42 27t43 24.5t41 12t36 -10.5q35 -28 54.5 -57 t16.5 -60.5t-36 -54.5q-200 -145 -512 -49q-152 49 -227 109q-43 37 -66 71q-161 17 -233 113q-20 40 26 75t109 42q27 0 39 -2q0 37 6 77q0 3 1 10t1 11q-62 6 -123 18q-38 10 -66.5 39.5t-7.5 50.5z" />
<glyph unicode="&#x25fc;" horiz-adv-x="962" d="M0 0v963h963v-963h-963z" />
</font>
</defs>
</svg>
