<svg xmlns="http://www.w3.org/2000/svg" viewBox="0 0 852 700">
  <path d="M96 324c15.2 0 27 4 35.4 12s13 17.1 14 27.3h-15.9c-1.8-7.7-5.4-13.9-10.8-18.4-5.3-4.5-12.9-6.8-22.6-6.8-11.8 0-21.4 4.2-28.7 12.5-7.2 8.3-10.9 21-10.9 38.2 0 14.1 3.3 25.5 9.8 34.2 6.6 8.7 16.4 13.1 29.4 13.1 12 0 21.1-4.6 27.4-13.8 3.3-4.8 5.8-11.2 7.4-19.1h15.9c-1.4 12.6-6.1 23.2-14.1 31.8-9.5 10.3-22.4 15.4-38.6 15.4-13.9 0-25.7-4.2-35.1-12.7-12.5-11.2-18.7-28.4-18.7-51.7 0-17.7 4.7-32.2 14.1-43.6C64.2 330.1 78.2 324 96 324zm81 84.6c.4 6.8 2 12.3 4.8 16.6 5.4 8 14.9 11.9 28.5 11.9 6.1 0 11.7-.9 16.7-2.6 9.7-3.4 14.5-9.4 14.5-18.1 0-6.5-2-11.2-6.1-14-4.1-2.7-10.6-5.1-19.4-7.1l-16.3-3.7c-10.6-2.4-18.1-5-22.6-7.9-7.6-5-11.4-12.5-11.4-22.5 0-10.8 3.7-19.6 11.2-26.6 7.5-6.9 18-10.4 31.7-10.4 12.6 0 23.3 3.1 32 9.2 8.8 6 13.2 15.7 13.2 29.1h-15.3c-.8-6.4-2.6-11.4-5.2-14.8-5-6.3-13.4-9.4-25.3-9.4-9.6 0-16.5 2-20.7 6s-6.3 8.7-6.3 14.1c0 5.9 2.5 10.2 7.4 12.9 3.2 1.7 10.5 3.9 21.8 6.5l16.8 3.8c8.1 1.9 14.4 4.4 18.8 7.6 7.6 5.6 11.4 13.8 11.4 24.4 0 13.3-4.8 22.8-14.5 28.5-9.6 5.7-20.9 8.6-33.7 8.6-14.9 0-26.6-3.8-35.1-11.4-8.4-7.6-12.6-17.8-12.4-30.8l15.5.1zm111.4 0c.4 6.8 2 12.3 4.8 16.6 5.4 8 14.9 11.9 28.5 11.9 6.1 0 11.7-.9 16.7-2.6 9.7-3.4 14.5-9.4 14.5-18.1 0-6.5-2-11.2-6.1-14-4.1-2.7-10.6-5.1-19.4-7.1l-16.3-3.7c-10.6-2.4-18.1-5-22.6-7.9-7.6-5-11.4-12.5-11.4-22.5 0-10.8 3.7-19.6 11.2-26.6 7.5-6.9 18-10.4 31.7-10.4 12.6 0 23.3 3.1 32 9.2 8.8 6 13.2 15.7 13.2 29.1h-15.3c-.8-6.4-2.6-11.4-5.2-14.8-5-6.3-13.4-9.4-25.3-9.4-9.6 0-16.5 2-20.7 6s-6.3 8.7-6.3 14.1c0 5.9 2.5 10.2 7.4 12.9 3.2 1.7 10.5 3.9 21.8 6.5l16.8 3.8c8.1 1.9 14.4 4.4 18.8 7.6 7.6 5.6 11.4 13.8 11.4 24.4 0 13.3-4.8 22.8-14.5 28.5-9.6 5.7-20.9 8.6-33.7 8.6-14.9 0-26.6-3.8-35.1-11.4-8.4-7.6-12.6-17.8-12.4-30.8l15.5.1zM45 536.4h23.3l34.5 101.5L137 536.4h23v120h-15.4v-70.8c0-2.5.1-6.5.2-12.2.1-5.7.2-11.7.2-18.2l-34.2 101.2H94.7L60.2 555.2v3.7c0 2.9.1 7.4.2 13.5.2 6 .2 10.4.2 13.2v70.8H45.1l-.1-120zm191.8-3.2c21.2 0 36.9 6.8 47.1 20.4 8 10.6 11.9 24.2 11.9 40.8 0 17.9-4.5 32.8-13.6 44.7-10.7 13.9-26 20.9-45.7 20.9-18.5 0-33-6.1-43.6-18.3-9.4-11.8-14.1-26.6-14.1-44.6 0-16.2 4-30.1 12.1-41.7 10.3-14.8 25.6-22.2 45.9-22.2zm1.6 112.3c14.3 0 24.7-5.1 31.1-15.4 6.4-10.3 9.6-22.1 9.6-35.5 0-14.1-3.7-25.5-11.1-34.1-7.4-8.6-17.4-12.9-30.2-12.9-12.4 0-22.6 4.3-30.4 12.8-7.8 8.5-11.8 21.1-11.8 37.7 0 13.3 3.4 24.5 10.1 33.7 6.7 9.1 17.6 13.7 32.7 13.7zm122.8-2.9c5.5 0 10-.6 13.6-1.7 6.3-2.1 11.5-6.2 15.5-12.3 3.2-4.8 5.5-11.1 6.9-18.6.8-4.5 1.2-8.7 1.2-12.6 0-14.9-3-26.4-8.9-34.6s-15.4-12.3-28.5-12.3h-28.8v92.2l29-.1zm-45.4-106.2h48.6c16.5 0 29.3 5.9 38.4 17.6 8.1 10.6 12.2 24.1 12.2 40.6 0 12.7-2.4 24.3-7.2 34.6-8.4 18.2-23 27.3-43.6 27.3h-48.5l.1-120.1zm137.9 0v74.2c0 8.7 1.6 16 4.9 21.7 4.8 8.7 13 13.1 24.5 13.1 13.8 0 23.2-4.7 28.1-14.1 2.7-5.1 4-12 4-20.7v-74.2h16.5v67.4c0 14.8-2 26.1-6 34.1-7.3 14.5-21.1 21.7-41.3 21.7-20.3 0-34-7.2-41.3-21.7-4-8-6-19.3-6-34.1v-67.4h16.6zm102.9 0h16.3v105.7h60.8v14.3h-77.1v-120zm94.7 0h87.5v14.7h-71.7v36.4h66.3v13.9h-66.3v40.7H740v14.3h-88.7v-120zm120.9 81.4c.4 6.8 2 12.3 4.8 16.6 5.4 8 14.9 11.9 28.5 11.9 6.1 0 11.7-.9 16.7-2.6 9.7-3.4 14.5-9.4 14.5-18.1 0-6.5-2-11.2-6.1-14-4.1-2.7-10.6-5.1-19.4-7.1l-16.3-3.7c-10.6-2.4-18.1-5-22.6-7.9-7.6-5-11.4-12.5-11.4-22.5 0-10.8 3.7-19.6 11.2-26.6 7.5-6.9 18-10.4 31.7-10.4 12.6 0 23.3 3.1 32 9.2 8.8 6 13.2 15.7 13.2 29.1h-15.3c-.8-6.4-2.6-11.4-5.2-14.8-5-6.3-13.4-9.4-25.3-9.4-9.6 0-16.5 2-20.7 6s-6.3 8.7-6.3 14.1c0 5.9 2.5 10.2 7.4 12.9 3.2 1.7 10.5 3.9 21.8 6.5l16.8 3.8c8.1 1.9 14.4 4.4 18.8 7.6 7.6 5.6 11.4 13.8 11.4 24.4 0 13.3-4.8 22.8-14.5 28.5-9.6 5.7-20.9 8.6-33.7 8.6-14.9 0-26.6-3.8-35.1-11.4-8.4-7.6-12.6-17.8-12.4-30.8l15.5.1z"/>
  <path d="M700 700H0V0h700v700zM5 695h690V5H5v690z"/>
</svg>
